<svg xmlns="http://www.w3.org/2000/svg" viewBox="0 0 405.37 132.68"><defs><style>.cls-1{fill:#ea2200;}</style></defs><title>Dotdash</title><g id="Layer_2" data-name="Layer 2"><g id="Layer_1-2" data-name="Layer 1"><path class="cls-1" d="M19.33,94.19a19.25,19.25,0,1,0,0,38.49,19.25,19.25,0,0,0,0-38.49Z"/><path d="M294.73,67.45a32.69,32.69,0,0,0-8.35-5.68,23,23,0,0,0-10.13-2.31,17.75,17.75,0,0,0-7.55,1.6,5.6,5.6,0,0,0-3.46,5.51q0,3.72,3.82,5.33a83.38,83.38,0,0,0,12.35,3.55,67.33,67.33,0,0,1,10,3,35.92,35.92,0,0,1,9.15,5.15,24.82,24.82,0,0,1,6.57,7.82,22.91,22.91,0,0,1,2.49,11,26.56,26.56,0,0,1-12.17,23.46,38.07,38.07,0,0,1-12.17,5.15,58.87,58.87,0,0,1-13.51,1.6,66.69,66.69,0,0,1-21.23-3.47A44.5,44.5,0,0,1,233.25,119l16.35-17.23a32.76,32.76,0,0,0,9.6,7.11,26.69,26.69,0,0,0,12.08,2.84,15.82,15.82,0,0,0,7-1.69,6,6,0,0,0,3.46-6c0-2.72-1.42-4.74-4.26-6a76.64,76.64,0,0,0-13.33-4.09,69.41,69.41,0,0,1-9.24-2.84,29.43,29.43,0,0,1-8.26-4.8,23.66,23.66,0,0,1-5.95-7.46,22.73,22.73,0,0,1-2.31-10.66,25.86,25.86,0,0,1,3.37-13.6,28.55,28.55,0,0,1,8.71-9.15,38.7,38.7,0,0,1,11.82-5.24,50.7,50.7,0,0,1,12.88-1.69,62.34,62.34,0,0,1,19.46,3.11,42,42,0,0,1,16.08,9.33Z"/><path d="M370.25,38.85c-8.76,0-16.14,2.56-21.71,7.46V.16H321.07V130h27.47V81.53c0-12.24,7.94-16.6,15.37-16.6,11.57,0,14,8.93,14,16.42V130h27.47V74.07C405.37,53.33,390.93,38.85,370.25,38.85Z"/><path d="M146.19,53.62a51,51,0,0,1,18.22-11.2,62.55,62.55,0,0,1,21.23-3.73q11.19,0,18.92,2.75A28.22,28.22,0,0,1,217.09,50a36.3,36.3,0,0,1,7,14.57,86.07,86.07,0,0,1,2.22,20.87v44.41H199.41v-9.22c-17,21.32-55.07,13.4-55.07-16.17,0-5.36,3.89-26.83,34.21-29.58,6-.55,11.39-.28,20.24-.28V73.16q0-6.57-4.62-9.68a19.93,19.93,0,0,0-11.37-3.11,28.42,28.42,0,0,0-12,2.66,31.79,31.79,0,0,0-9,5.8Zm53.49,37.85H188.93c-8.78,0-13.57,3.69-15,5.22a8,8,0,0,0-2.25,5.71,6.9,6.9,0,0,0,1,3.86,8.13,8.13,0,0,0,2.65,2.57,11.26,11.26,0,0,0,3.7,1.37,21.22,21.22,0,0,0,4,.4q8,0,12.31-4.42t4.26-12Z"/><path d="M107.18,0V46.23c-6.05-5-13.48-7.58-22.33-7.58-24.58,0-43.12,20.06-43.12,46.66s18.54,47.31,43.11,47.31c8.91,0,17.22-3,22.8-8.57v5.78h27V0ZM110,94.13a24.5,24.5,0,0,1-4.38,7.47,21.67,21.67,0,0,1-6.84,5.29,20,20,0,0,1-9.11,2,20.47,20.47,0,0,1-9.3-2,20.87,20.87,0,0,1-6.75-5.29A22.5,22.5,0,0,1,69.5,94a28.42,28.42,0,0,1-1.36-8.66,27.48,27.48,0,0,1,1.36-8.57A20.9,20.9,0,0,1,80.35,64.23a20.47,20.47,0,0,1,9.3-2,20,20,0,0,1,9.11,2,21.67,21.67,0,0,1,6.84,5.29A24.6,24.6,0,0,1,110,94.13Z"/></g></g></svg>