<svg id="Layer_1" xmlns="http://www.w3.org/2000/svg" xmlns:xlink="http://www.w3.org/1999/xlink" viewBox="0 0 209 82">
  <style>
    .st0{fill:#3232ef}
  </style>
  <path class="st0" d="M90.25 40h-1.5c0-2.619-2.131-4.75-4.75-4.75v-1.5c2.619 0 4.75-2.131 4.75-4.75h1.5c0 2.619 2.131 4.75 4.75 4.75v1.5c-2.619 0-4.75 2.131-4.75 4.75zm-3.283-5.5c1.07.58 1.953 1.463 2.533 2.533.58-1.07 1.463-1.954 2.533-2.533-1.07-.58-1.953-1.463-2.533-2.533-.58 1.07-1.463 1.953-2.533 2.533zM141.25 51h-1.5c0-2.619-2.131-4.75-4.75-4.75v-1.5c2.619 0 4.75-2.131 4.75-4.75h1.5c0 2.619 2.131 4.75 4.75 4.75v1.5c-2.619 0-4.75 2.131-4.75 4.75zm-3.283-5.5c1.07.58 1.953 1.463 2.533 2.533.58-1.07 1.463-1.953 2.533-2.533-1.07-.58-1.953-1.463-2.533-2.533-.58 1.07-1.463 1.953-2.533 2.533zM163.25 40h-1.5c0-2.619-2.131-4.75-4.75-4.75v-1.5c2.619 0 4.75-2.131 4.75-4.75h1.5c0 2.619 2.131 4.75 4.75 4.75v1.5c-2.619 0-4.75 2.131-4.75 4.75zm-3.283-5.5c1.07.58 1.953 1.463 2.533 2.533.58-1.07 1.463-1.954 2.533-2.533-1.07-.58-1.953-1.463-2.533-2.533-.58 1.07-1.463 1.953-2.533 2.533zM204.25 68h-1.5c0-2.619-2.131-4.75-4.75-4.75v-1.5c2.619 0 4.75-2.131 4.75-4.75h1.5c0 2.619 2.131 4.75 4.75 4.75v1.5c-2.619 0-4.75 2.131-4.75 4.75zm-3.283-5.5c1.07.58 1.953 1.463 2.533 2.533.58-1.07 1.463-1.953 2.533-2.533-1.07-.58-1.953-1.463-2.533-2.533-.58 1.07-1.463 1.953-2.533 2.533z"/>
  <defs>
    <path id="SVGID_1_" d="M54.168 50.39l.134-.116.003-.072c-.131.184-.247.284-.137.188zm5.665-4.104c.117-.101.002-.119-.17-.187.09.136.147.202.169.185l.001.002zM7.633 3.588c-.071-.058-.164-.088-.263-.078-.098.01-.182.059-.24.13-.058.071-.088.165-.078.263s.059.183.131.24c.071.058.164.088.262.078.098-.01.183-.059.24-.131.058-.071.088-.164.078-.262-.01-.098-.059-.183-.13-.24zm-.353-.942c.337-.035.656.069.9.267.244.197.412.487.448.824.035.337-.069.656-.267.9s-.488.413-.825.448c-.337.035-.656-.069-.9-.267-.244-.197-.412-.488-.448-.824-.035-.337.069-.656.267-.9.197-.244.488-.413.825-.448zm46.297 39.095c.144.19.107.462-.083.606-.19.144-.462.107-.606-.083-.884-1.162-1.726-2.057-2.533-2.804-.806-.747-1.584-1.354-2.333-1.935-.189-.147-.223-.419-.076-.608.147-.189.419-.223.608-.076.76.59 1.552 1.206 2.39 1.983.836.776 1.712 1.706 2.633 2.917zM4.952 7.112c-1.434.801-2.089 2.082-2.26 3.452-.162 1.303.108 2.688.565 3.831.108-.393.117-.912.126-1.467.023-1.373.049-2.936 1.412-4.035.372-.359.491-.689.472-.986-.019-.276-.15-.547-.315-.795zm-2.284 7.199c-.421-1.16-.653-2.521-.493-3.811.187-1.502.9-2.908 2.452-3.803-.203-.22-.424-.382-.644-.448-.202-.061-.415-.033-.625.125-.02.015-.041.032-.062.05l-.002-.002c-.044.038-.087.077-.13.115-.518.458-1.032.913-1.427 1.619-.644 1.149-.5 2.817-.054 4.203.205.638.475 1.211.762 1.646.075.113.15.216.223.306zm36.801 17.094c.053.134-.012.285-.146.338-.134.053-.285-.012-.338-.146-.793-1.976-1.613-3.426-2.691-4.534-1.074-1.104-2.413-1.877-4.247-2.507-.136-.046-.209-.194-.163-.33s.194-.209.33-.163c1.915.657 3.319 1.47 4.453 2.636 1.13 1.162 1.983 2.665 2.802 4.706zm.856-5.467c.099.104.094.269-.011.368-.104.099-.269.094-.368-.011-1.481-1.562-3.302-2.957-5.075-3.823-1.562-.762-3.077-1.11-4.27-.79-.139.037-.281-.045-.318-.184-.037-.139.045-.281.184-.318 1.325-.356 2.965.01 4.632.824 1.829.893 3.704 2.328 5.226 3.934zm-.57 16.473c-.102.045-.204.085-.307.12l-.038.015c.654.671 2.049 2.02 3.478 3.374 1.877 1.779 3.795 3.548 4.164 3.796.338.228.844.573 1.208 1.064.401.543.61 1.227.239 2.057l-.007.015-.013.023c-.598 1.044-3.793 1.747-5.23 2.063-.146.032-.269.059-.424.095l-5.686 1.699c.056.255.121.463.183.661.164.522.309.987.275 1.952-.023.646-.105.991-.181 1.31-.095.401-.179.754-.071 1.819l1.611 15.244c.015.169.063.309.104.429.043.126.08.236.094.373.049.488-.063.957-.294 1.354-.235.404-.594.735-1.035.939-.161.074-.826.234-1.546.389-.842.182-1.787.365-2.056.395l-.178.02-.14-.112c-.112-.09-.181-.164-.243-.231-.076-.082-.13-.141-.417-.139-.211.002-.493.078-.743.146-.156.042-.302.082-.419.104-.836.156-.946.029-1.209-.274-.094-.108-.234-.27-.742-.465l-.006-.002c-.043-.013-.095-.029-.154-.06l-.41-.213.239-.395c.617-1.022 2.082-1.191 3.504-1.356.337-.039.672-.078 1.003-.13 1.108-.177 1.661-.513 1.9-1.02.256-.544.21-1.346.095-2.373L34.75 62.608l-.002-.015c-.072-.851-.276-1.469-.461-2.032-.299-.905-.554-1.68-.257-3.033-.128.035-.254.07-.376.104-.402.114-.767.224-1.069.327-.823.281-1.166.588-1.225.968-.069.439.166 1.058.493 1.846.098.238.235.446.369.65.317.483.622.95.626 1.821l.001.234-.195.13c-.34.227-.783-.039-1.221-.302-.216-.13-.404-.26-.417-.259-.085.009-.21.14-.325.259-.317.33-.599.624-1.111.329-.283-.163-.537-.378-.755-.637-.214-.254-.391-.549-.523-.875-.229-.564-.36-1.222-.363-1.897-.003-.633.103-1.283.342-1.888.895-2.271 3.635-2.958 5.446-3.412.141-.035.276-.069.407-.103l-1.142-8.95h-.001c-.039-.205-.077-.418-.108-.594-.06-.34-.09-.506-.142-.617-.051-.107-.155-.23-.358-.47-.11-.13-.247-.291-.446-.536-.89-1.095-1.85-1.554-2.927-2.069-.809-.387-1.68-.804-2.649-1.525-.105-.078-.252-.188-.395-.295-1.969-1.475-3.56-2.666-6.933-3.118-.66-.088-1.331-.167-1.996-.245-2.55-.299-5.03-.59-7.261-1.469-.695-.274-1.319-.594-1.876-.954-2.158-1.394-3.27-3.356-3.63-5.508-.354-2.12.028-4.416.857-6.521.394-1.001.892-1.962 1.46-2.843.72-1.116 1.757-2.35 2.816-3.611 1.864-2.219 3.8-4.524 4.043-6.219.023-.163.038-.314.045-.454.036-.731-.107-1.367-.406-1.835-.279-.436-.702-.727-1.246-.805l-.033-.005c-.107.101-.195.201-.286.305-.17.194-.35.4-.66.65-.236.19-.463.362-.695.518-.233.156-.482.305-.765.451-.672.346-1.336.49-1.976.629-.569.124-1.118.244-1.584.499-1.543.849-1.568 2.382-1.59 3.706-.015.932-.029 1.777-.492 2.393l-.05.069-.076.045c-.234.139-.485.161-.744.084-.398-.119-.806-.499-1.168-1.045-.327-.494-.632-1.143-.863-1.86-.507-1.578-.654-3.506.122-4.89.467-.834 1.037-1.339 1.611-1.847.303-.268.607-.537.878-.843.191-.215.33-.632.488-1.105.243-.725.524-1.565 1.165-2.272C6.092.597 7.572-.027 9.169-.11c.896-.046 1.83.077 2.731.386.902.309 1.773.805 2.545 1.505 1.535 1.393 2.666 3.586 2.827 6.709l.001.029c-.063 3.794-2.04 6.8-4.006 9.79-.801 1.218-1.6 2.434-2.251 3.677-.553 1.056-1.083 2.742-1.008 4.242.051 1.024.391 1.952 1.221 2.485.21.135.451.227.712.278.549.109 1.18.043 1.808-.168.014-.006.029-.011.045-.015.163-.057.327-.124.488-.2.806-.381 1.554-.993 2.057-1.776.265-.413.461-.874.56-1.373l.006-.026c.801-3.054 2.322-5.097 4.418-6.379 2.075-1.268 4.697-1.772 7.731-1.762 1.489.005 2.943.117 4.319.338 1.352.217 2.637.54 3.817.97.391.143.915.36 1.49.627.02.008.041.017.061.025.873.358 1.656.775 2.305 1.236l.005.004c.111.069.221.139.328.209 1.007.663 1.794 1.392 1.928 2.072l.047.239-.18.164c-.114.104-.202.172-.277.221.201.173.444.365.702.568 1.116.879 2.481 1.954 2.531 3.194l.008.208-.156.137c-.074.065-.161.125-.255.181l3.89 3.451.013.012c.723.696 1.424 1.388 2.105 2.102.692.724 1.375 1.482 2.06 2.305.52.625 1.839 2.317 3.157 4.229.84 1.219 1.683 2.531 2.323 3.722.109.203.202.378.277.526.356.692.609 1.256.745 1.663.205.616.158 1.033-.173 1.211l-.008.005c-.365.188-1.117-.346-1.935-1.125-.349-.332-.725-.71-1.088-1.086.004.018.007.037.008.055.012.032.024.063.036.094.28.729.481 1.384.447 1.666-.074.622-.415.811-.899.754-.427-.051-.936-.376-1.401-.674-.12-.077-.226-.155-.313-.223.025.027.047.059.064.097.617 1.33.994 2.283 1.264 3.295.268 1.003.425 2.045.603 3.561l.091.773-.705-.33c-.672-.314-1.039-.989-1.392-1.637-.213-.392-.42-.771-.654-.973l-.096-.084c-.064-.005-.142-.017-.235-.04v-.001l-.331-.069-.02-.004c-.036-.01-.065-.019-.091-.028-.017-.006-.017-.006-.025-.009-.485-.139-.808-.855-1.108-1.523-.14-.31-.274-.608-.384-.77v-.002c-1.092-1.607-2.094-2.11-3.032-2.581-.746-.374-1.455-.73-2.164-1.536-.226-.257-.444-.542-.67-.838-.651-.852-1.373-1.797-2.321-2.058-1.227-.338-2.459.164-3.62.636-.131.056-.261.108-.39.16zM34.35 56.543c-.025-.304-.06-.574-.099-.856-.101.026-.207.052-.317.08-1.638.411-4.114 1.031-4.846 2.888-.198.502-.286 1.041-.283 1.565.003.567.11 1.115.299 1.579.097.24.227.456.382.641.15.178.327.328.526.442.076.044-.016-.107.052-.177.219-.228.459-.478.861-.52.27-.028.598.165.931.365-.092-.243-.225-.446-.36-.652-.156-.238-.315-.481-.445-.796-.38-.916-.651-1.65-.548-2.308.112-.718.62-1.253 1.805-1.656.335-.114.711-.228 1.112-.342.296-.084.609-.169.93-.253zm1.75-.855c-.033-.26-.062-.513-.086-.761l-1.174-9.09-.001-.01c-.026-.237-.055-.475-.084-.702-.129-1.035-.231-1.854.14-2.301.602-.858 1.513-.878 2.534-.9.572-.012 1.185-.026 1.749-.217.211-.08.424-.167.64-.255 1.294-.527 2.668-1.086 4.176-.671 1.23.339 2.045 1.406 2.78 2.368.218.285.428.56.631.79.597.679 1.234.999 1.904 1.335 1.034.519 2.137 1.073 3.359 2.87h.001c.157.231.305.559.459.902.221.491.458 1.018.553 1.045.029.008.044.013.06.019l.038.013.327.068.019.003c.026.007.008.021-.008.03l-.001.002c.106-.043.175-.066.345.007.077.033.114.066.209.149.008.007.018.016.139.121.355.306.598.754.85 1.215.071.13.142.261.216.388-.116-.814-.24-1.479-.412-2.12-.172-.645-.396-1.274-.709-2.018-.44-1.018-.972-1.952-1.597-2.817-.645-.894-1.386-1.71-2.223-2.467-.177-.16-.191-.434-.03-.611.16-.177.434-.191.611-.03.887.803 1.669 1.663 2.346 2.601.173.239.339.484.499.735.005-.002.01-.004.016-.006.373-.148.849.156 1.375.493.354.226.738.472.974.533-.001-.15-.171-.645-.398-1.237-.352-.917-.835-1.999-1.086-2.494-.809-1.556-1.617-2.612-2.283-3.484-.147-.192-.287-.375-.401-.529-.143-.192-.103-.464.09-.607.192-.143.464-.103.607.09.137.184.262.348.393.519.677.886 1.495 1.956 2.319 3.522.335.418 1.711 1.935 2.811 2.982.273.26.492.502.651.68-.133-.363-.352-.841-.646-1.414-.094-.184-.184-.355-.269-.513-.619-1.152-1.446-2.438-2.273-3.638-1.3-1.886-2.598-3.551-3.11-4.166-.67-.806-1.341-1.549-2.021-2.262-.688-.72-1.374-1.398-2.072-2.071l-4.135-3.668c-.076.037-.15.072-.221.106-.543.259-.945.451-1.173.719-.016.018.416.395.814.805.288.296.574.592.763.868.32.469.385.886-.07 1.196-.937.64-.328 1.526.15 2.221.3.436.564.82.57 1.195.009.547-.37.883-1.509.903-.724.012-1.234-.16-1.725-.326-.81-.274-1.556-.525-3.433.525-1.519.85-3.773-.592-5.808-2.455-1.941-1.777-3.696-3.923-4.316-4.704-.514-.647-1.078-1.225-1.782-1.67-.701-.444-1.555-.765-2.658-.908-.238-.031-.406-.248-.375-.486.031-.238.248-.406.486-.375 1.234.16 2.202.528 3.009 1.038.805.509 1.435 1.15 2 1.862.611.769 2.336 2.879 4.221 4.605 1.791 1.64 3.707 2.947 4.799 2.336 2.211-1.238 3.132-.927 4.133-.589.418.141.852.288 1.433.278.491-.008.657-.014.657-.018-.002-.12-.195-.4-.415-.72-.695-1.01-1.581-2.299.074-3.429.085-.058-.131.049-.159.009-.144-.211-.406-.481-.669-.751-.671-.692-1.348-1.389-.852-1.972.329-.386.766-.609 1.35-.887l-.001-.001.671-.328c.087-.042.174-.084.254-.126l.02-.011.009-.005c.027-.014.053-.028.078-.042-.206-.783-1.276-1.626-2.166-2.326-.517-.407-.98-.772-1.247-1.106l-.309-.387.424-.255c.178-.107.292-.148.39-.183.013-.005.026-.009.039-.014-.223-.376-.776-.827-1.458-1.276-.1-.066-.202-.131-.307-.196-.018-.009-.035-.02-.052-.031l-.005-.003c-.692-.426-1.463-.826-2.161-1.152-2.28-.929-5.212-1.442-7.919-1.241-2.671.198-5.111 1.09-6.442 2.966-.235.331-.436.693-.597 1.085-.091.222-.344.328-.566.237-.222-.091-.328-.344-.237-.566.188-.458.42-.877.691-1.259 1.201-1.693 3.16-2.671 5.388-3.103-2.729.03-5.078.506-6.925 1.635-1.903 1.163-3.288 3.035-4.028 5.849-.102.506-.285.978-.529 1.41.556-.527 1.032-1.178 1.363-1.969.092-.221.345-.325.566-.234.221.092.325.345.234.566-.479 1.145-1.216 2.031-2.068 2.698-1.018.799-2.198 1.284-3.287 1.528-.768.257-1.553.334-2.248.197-.367-.073-.71-.204-1.015-.4-1.105-.709-1.554-1.887-1.618-3.17-.083-1.667.498-3.527 1.105-4.685.678-1.295 1.485-2.522 2.294-3.753 1.896-2.884 3.804-5.784 3.863-9.321-.153-2.855-1.167-4.842-2.541-6.089-.678-.615-1.447-1.052-2.243-1.325C10.819.826 9.997.717 9.211.758c-1.372.069-2.635.593-3.449 1.49-.518.572-.768 1.32-.985 1.967-.155.465-.295.884-.515 1.213.402.13.776.414 1.094.784.057.066.112.135.166.206.301.402.573.883.609 1.432.007.106.005.213-.006.322.363-.122.736-.204 1.118-.286.586-.127 1.192-.259 1.762-.553.237-.122.457-.255.675-.402.219-.148.426-.304.638-.475.251-.202.404-.377.549-.543.152-.174.296-.339.518-.52l.128-.104.168.008c.104.005.197.014.28.026.81.116 1.439.549 1.854 1.199.395.618.586 1.43.541 2.343-.009.182-.026.36-.051.533-.279 1.94-2.297 4.342-4.24 6.656-1.041 1.239-2.06 2.452-2.751 3.522-.536.829-1.006 1.739-1.381 2.691-.776 1.971-1.136 4.108-.81 6.063.321 1.922 1.315 3.675 3.244 4.92.506.326 1.079.62 1.724.874 2.135.841 4.556 1.125 7.044 1.417.663.078 1.33.156 2.01.247.339.045.66.097.966.156.27.049.417.077.564.105 1.503.283 2.992.564 4.288.219.231-.061.468.077.529.308.061.231-.077.468-.308.529-.428.114-.864.17-1.306.186.916.515 1.725 1.121 2.606 1.781.115.086.231.173.391.292.903.672 1.732 1.069 2.503 1.438 1.17.559 2.213 1.058 3.228 2.307.163.201.313.378.434.52.253.299.382.451.481.659.103.217.139.423.214.842.025.14.055.31.107.581l.003.027 1.157 9.068h.001c.025.201.053.399.079.589.06.432.114.819.146 1.295l.013.142c.042.454-.151.66-.323.844-.025.027-.036-.005-.042.023-.251 1.128-.028 1.802.232 2.591.199.602.417 1.263.498 2.221l1.552 12.487c.131 1.171.176 2.1-.172 2.84-.366.778-1.114 1.279-2.548 1.508-.322.052-.68.093-1.04.134-.943.109-1.907.22-2.476.575.342.188.492.361.603.489.032.037.046.053.397-.013.107-.02.226-.052.353-.087.3-.081.637-.173.958-.175.675-.005.837.17 1.063.415l.022.024c.372-.063 1.101-.208 1.776-.354.667-.144 1.264-.282 1.365-.329.277-.128.502-.336.649-.588.143-.245.212-.533.182-.831-.004-.037-.027-.105-.053-.183-.055-.162-.12-.353-.145-.625l-1.61-15.234c-.123-1.216-.024-1.633.089-2.108.066-.278.138-.579.158-1.14.029-.824-.095-1.22-.235-1.666-.222-.714-.302-1.242-.394-1.962zm.791-.693c.02.191.042.386.068.586.012.094.025.191.039.289 1.877-.561 3.755-1.122 5.633-1.683.067-.016.236-.053.434-.096 1.31-.288 4.209-.927 4.653-1.628.2-.466.077-.856-.154-1.169-.272-.369-.705-.663-.995-.858-.408-.274-2.371-2.08-4.276-3.887-1.697-1.609-3.362-3.234-3.867-3.805-.333.034-.661.041-.976.048-.361.008-.703.015-1.003.069.119.084.259.165.431.203l.209.047c.747.164.791.173 1.433.799l.002.002 7.023 6.891-.296.309c-.099.103-.143.285-.145.481-.003.245.057.485.16.624l.38.517-8.753 2.261zm7.419-2.814c-.052-.191-.079-.396-.077-.596.003-.246.049-.492.146-.709l-6.468-6.347c-.464-.452-.495-.459-1.012-.572l-.212-.046c-.424-.095-.681-.291-.894-.452-.094-.072-.163-.124-.191-.105l-.017.012-.021.011c-.146.078-.062.749.049 1.642.028.222.057.456.084.708l1.085 8.4 7.528-1.946z"/>
  </defs>
  <clipPath id="SVGID_2_">
    <use xlink:href="#SVGID_1_" overflow="visible"/>
  </clipPath>
  <g clip-path="url(#SVGID_2_)">
    <defs>
      <path id="SVGID_3_" d="M-123-130h1440V894H-123z"/>
    </defs>
    <clipPath id="SVGID_4_">
      <use xlink:href="#SVGID_3_" overflow="visible"/>
    </clipPath>
    <g clip-path="url(#SVGID_4_)">
      <path transform="rotate(-6.012 31.61989 39.713009)" class="st0" d="M-1.336-7.248h65.913V86.64H-1.336z"/>
    </g>
  </g>
</svg>
