<svg id="Layer_1" xmlns="http://www.w3.org/2000/svg" xmlns:xlink="http://www.w3.org/1999/xlink" viewBox="0 0 209 82">
  <style>
    .st0{fill:#ff4100}
  </style>
  <path class="st0" d="M20.25 44h-1.5c0-2.619-2.131-4.75-4.75-4.75v-1.5c2.619 0 4.75-2.131 4.75-4.75h1.5c0 2.619 2.131 4.75 4.75 4.75v1.5c-2.619 0-4.75 2.131-4.75 4.75zm-3.283-5.5c1.07.58 1.954 1.463 2.533 2.533.58-1.07 1.463-1.953 2.533-2.533-1.07-.58-1.954-1.463-2.533-2.533-.58 1.07-1.463 1.953-2.533 2.533zM46.25 33h-1.5c0-2.619-2.131-4.75-4.75-4.75v-1.5c2.619 0 4.75-2.131 4.75-4.75h1.5c0 2.619 2.131 4.75 4.75 4.75v1.5c-2.619 0-4.75 2.131-4.75 4.75zm-3.283-5.5c1.07.58 1.954 1.463 2.533 2.533.58-1.07 1.463-1.953 2.533-2.533-1.07-.58-1.954-1.463-2.533-2.533-.58 1.07-1.463 1.953-2.533 2.533zM87.25 59h-1.5c0-2.619-2.131-4.75-4.75-4.75v-1.5c2.619 0 4.75-2.131 4.75-4.75h1.5c0 2.619 2.131 4.75 4.75 4.75v1.5c-2.619 0-4.75 2.131-4.75 4.75zm-3.283-5.5c1.07.58 1.953 1.463 2.533 2.533.58-1.07 1.463-1.953 2.533-2.533-1.07-.58-1.953-1.463-2.533-2.533-.58 1.07-1.463 1.953-2.533 2.533zM127.25 70h-1.5c0-2.619-2.131-4.75-4.75-4.75v-1.5c2.619 0 4.75-2.131 4.75-4.75h1.5c0 2.619 2.131 4.75 4.75 4.75v1.5c-2.619 0-4.75 2.131-4.75 4.75zm-3.283-5.5c1.07.58 1.953 1.463 2.533 2.533.58-1.07 1.463-1.953 2.533-2.533-1.07-.58-1.953-1.463-2.533-2.533-.58 1.07-1.463 1.953-2.533 2.533z"/>
  <defs>
    <path id="SVGID_1_" d="M179.157 56.35c-.016-.154-.113-.278-.253-.336-.257-.08-.507.113-.482.374l.091 1.481c.016.154.113.278.253.336.257.08.507-.113.482-.374l-.091-1.481z"/>
  </defs>
  <clipPath id="SVGID_2_">
    <use xlink:href="#SVGID_1_" overflow="visible"/>
  </clipPath>
  <g clip-path="url(#SVGID_2_)">
    <defs>
      <path id="SVGID_3_" d="M-1266.612-167.743H464.92v1231.311h-1731.532z"/>
    </defs>
    <clipPath id="SVGID_4_">
      <use xlink:href="#SVGID_3_" overflow="visible"/>
    </clipPath>
    <path transform="rotate(-79 178.839317 57.111651)" clip-path="url(#SVGID_4_)" fill="#ff4100" d="M171.731 50.539h14.207V63.68h-14.207z"/>
  </g>
  <defs>
    <path id="SVGID_5_" d="M181.7 35.811c-.063-.223-.294-.359-.51-.265-.166.073-.247.254-.219.425l.324 1.451c.063.223.294.359.51.265.166-.073.247-.254.219-.425l-.324-1.451z"/>
  </defs>
  <clipPath id="SVGID_6_">
    <use xlink:href="#SVGID_5_" overflow="visible"/>
  </clipPath>
  <g clip-path="url(#SVGID_6_)">
    <defs>
      <path id="SVGID_7_" d="M-1266.612-167.743H464.92v1231.311h-1731.532z"/>
    </defs>
    <clipPath id="SVGID_8_">
      <use xlink:href="#SVGID_7_" overflow="visible"/>
    </clipPath>
    <path transform="rotate(-79 181.50287 36.617428)" clip-path="url(#SVGID_8_)" fill="#ff4100" d="M174.43 29.938h14.135v13.356H174.43z"/>
  </g>
  <defs>
    <path id="SVGID_9_" d="M178.563 46.005c-.016-.154-.113-.278-.253-.336-.257-.08-.507.113-.482.374l.091 1.481c.016.154.113.278.253.336.257.08.507-.113.482-.374l-.091-1.481z"/>
  </defs>
  <clipPath id="SVGID_10_">
    <use xlink:href="#SVGID_9_" overflow="visible"/>
  </clipPath>
  <g clip-path="url(#SVGID_10_)">
    <defs>
      <path id="SVGID_11_" d="M-1266.612-167.743H464.92v1231.311h-1731.532z"/>
    </defs>
    <clipPath id="SVGID_12_">
      <use xlink:href="#SVGID_11_" overflow="visible"/>
    </clipPath>
    <path transform="rotate(-79 178.24501 46.766097)" clip-path="url(#SVGID_12_)" fill="#ff4100" d="M171.137 40.194h14.207v13.141h-14.207z"/>
  </g>
  <defs>
    <path id="SVGID_13_" d="M178.86 51.177c-.016-.154-.113-.278-.253-.336-.257-.08-.507.113-.482.374l.091 1.481c.016.154.113.278.253.336.257.08.507-.113.482-.374l-.091-1.481z"/>
  </defs>
  <clipPath id="SVGID_14_">
    <use xlink:href="#SVGID_13_" overflow="visible"/>
  </clipPath>
  <g clip-path="url(#SVGID_14_)">
    <defs>
      <path id="SVGID_15_" d="M-1266.612-167.743H464.92v1231.311h-1731.532z"/>
    </defs>
    <clipPath id="SVGID_16_">
      <use xlink:href="#SVGID_15_" overflow="visible"/>
    </clipPath>
    <path transform="rotate(-79 178.54222 51.938869)" clip-path="url(#SVGID_16_)" fill="#ff4100" d="M171.434 45.367h14.207v13.141h-14.207z"/>
  </g>
  <defs>
    <path id="SVGID_17_" d="M174.002 54.719l-.003.015s.019-.012.003-.015z"/>
  </defs>
  <clipPath id="SVGID_18_">
    <use xlink:href="#SVGID_17_" overflow="visible"/>
  </clipPath>
  <g clip-path="url(#SVGID_18_)">
    <defs>
      <path id="SVGID_19_" d="M-1266.612-167.743H464.92v1231.311h-1731.532z"/>
    </defs>
    <clipPath id="SVGID_20_">
      <use xlink:href="#SVGID_19_" overflow="visible"/>
    </clipPath>
    <path transform="rotate(-79 174.008991 54.72915)" clip-path="url(#SVGID_20_)" fill="#ff4100" d="M167.984 48.712h12.04v12.031h-12.04z"/>
  </g>
  <defs>
    <path id="SVGID_21_" d="M181.099 14.77s-.015-.003 0 0c-.015-.003-.015-.003 0 0z"/>
  </defs>
  <clipPath id="SVGID_22_">
    <use xlink:href="#SVGID_21_" overflow="visible"/>
  </clipPath>
  <g clip-path="url(#SVGID_22_)">
    <defs>
      <path id="SVGID_23_" d="M-1266.612-167.743H464.92v1231.311h-1731.532z"/>
    </defs>
    <clipPath id="SVGID_24_">
      <use xlink:href="#SVGID_23_" overflow="visible"/>
    </clipPath>
    <path transform="rotate(-79 181.097696 14.769675)" clip-path="url(#SVGID_24_)" fill="#ff4100" d="M175.081 8.751h12.025v12.036h-12.025z"/>
  </g>
  <defs>
    <path id="SVGID_25_" d="M182.809 40.869c-.063-.223-.294-.359-.51-.265-.166.073-.247.254-.219.425l.324 1.451c.063.223.294.359.51.265.166-.073.247-.254.219-.425l-.324-1.451z"/>
  </defs>
  <clipPath id="SVGID_26_">
    <use xlink:href="#SVGID_25_" overflow="visible"/>
  </clipPath>
  <g clip-path="url(#SVGID_26_)">
    <defs>
      <path id="SVGID_27_" d="M-1266.612-167.743H464.92v1231.311h-1731.532z"/>
    </defs>
    <clipPath id="SVGID_28_">
      <use xlink:href="#SVGID_27_" overflow="visible"/>
    </clipPath>
    <path transform="rotate(-79 182.610907 41.675998)" clip-path="url(#SVGID_28_)" fill="#ff4100" d="M175.539 34.997h14.135v13.355h-14.135z"/>
  </g>
  <defs>
    <path id="SVGID_29_" d="M183.928 45.945c-.063-.223-.294-.359-.51-.265-.166.073-.247.254-.219.425l.324 1.451c.063.223.294.359.51.265.166-.073.246-.254.219-.425l-.324-1.451z"/>
  </defs>
  <clipPath id="SVGID_30_">
    <use xlink:href="#SVGID_29_" overflow="visible"/>
  </clipPath>
  <g clip-path="url(#SVGID_30_)">
    <defs>
      <path id="SVGID_31_" d="M-1266.612-167.743H464.92v1231.311h-1731.532z"/>
    </defs>
    <clipPath id="SVGID_32_">
      <use xlink:href="#SVGID_31_" overflow="visible"/>
    </clipPath>
    <path transform="rotate(-79 183.730943 46.751896)" clip-path="url(#SVGID_32_)" fill="#ff4100" d="M176.658 40.073h14.135v13.355h-14.135z"/>
  </g>
  <defs>
    <path id="SVGID_33_" d="M184.875 50.176c-.063-.223-.294-.359-.51-.265-.166.073-.247.254-.219.425l.324 1.451c.063.223.294.359.51.265.166-.073.247-.254.219-.425l-.324-1.451z"/>
  </defs>
  <clipPath id="SVGID_34_">
    <use xlink:href="#SVGID_33_" overflow="visible"/>
  </clipPath>
  <g clip-path="url(#SVGID_34_)">
    <defs>
      <path id="SVGID_35_" d="M-1266.612-167.743H464.92v1231.311h-1731.532z"/>
    </defs>
    <clipPath id="SVGID_36_">
      <use xlink:href="#SVGID_35_" overflow="visible"/>
    </clipPath>
    <path transform="rotate(-79 184.677134 50.983284)" clip-path="url(#SVGID_36_)" fill="#ff4100" d="M177.605 44.304h14.135V57.66h-14.135z"/>
  </g>
  <defs>
    <path id="SVGID_37_" d="M161.788 34.164c.052-.035.107-.085.136-.155l.696-1.313c.17-.329-.2-.688-.526-.494-.052.035-.108.085-.136.155l-.696 1.313c-.156.332.203.673.526.494z"/>
  </defs>
  <clipPath id="SVGID_38_">
    <use xlink:href="#SVGID_37_" overflow="visible"/>
  </clipPath>
  <g clip-path="url(#SVGID_38_)">
    <defs>
      <path id="SVGID_39_" d="M-1266.612-167.743H464.92v1231.311h-1731.532z"/>
    </defs>
    <clipPath id="SVGID_40_">
      <use xlink:href="#SVGID_39_" overflow="visible"/>
    </clipPath>
    <path transform="rotate(-79 161.947254 33.18156)" clip-path="url(#SVGID_40_)" fill="#ff4100" d="M154.845 26.581h14.196v13.2h-14.196z"/>
  </g>
  <defs>
    <path id="SVGID_41_" d="M165.579 35.413c.125-.021.233-.106.273-.234l.499-1.397c.101-.282-.138-.54-.42-.489-.125.021-.233.106-.273.234l-.5 1.397c-.1.282.135.554.421.489z"/>
  </defs>
  <clipPath id="SVGID_42_">
    <use xlink:href="#SVGID_41_" overflow="visible"/>
  </clipPath>
  <g clip-path="url(#SVGID_42_)">
    <defs>
      <path id="SVGID_43_" d="M-1266.612-167.743H464.92v1231.311h-1731.532z"/>
    </defs>
    <clipPath id="SVGID_44_">
      <use xlink:href="#SVGID_43_" overflow="visible"/>
    </clipPath>
    <path transform="rotate(-79 165.758752 34.357248)" clip-path="url(#SVGID_44_)" fill="#ff4100" d="M158.639 27.862h14.232v12.987h-14.232z"/>
  </g>
  <defs>
    <path id="SVGID_45_" d="M162.408 43.051c-.125.021-.233.106-.273.234l-.499 1.397c-.1.282.138.54.421.489.125-.021.233-.106.273-.234l.499-1.397c.115-.279-.123-.537-.421-.489z"/>
  </defs>
  <clipPath id="SVGID_46_">
    <use xlink:href="#SVGID_45_" overflow="visible"/>
  </clipPath>
  <g clip-path="url(#SVGID_46_)">
    <defs>
      <path id="SVGID_47_" d="M-1266.612-167.743H464.92v1231.311h-1731.532z"/>
    </defs>
    <clipPath id="SVGID_48_">
      <use xlink:href="#SVGID_47_" overflow="visible"/>
    </clipPath>
    <path transform="rotate(-79 162.237872 44.112651)" clip-path="url(#SVGID_48_)" fill="#ff4100" d="M155.121 37.616h14.226v12.99h-14.226z"/>
  </g>
  <defs>
    <path id="SVGID_49_" d="M160.647 47.837c-.125.021-.233.106-.273.234l-.499 1.397c-.1.282.138.54.421.489.125-.021.233-.106.273-.234l.499-1.397c.115-.28-.124-.537-.421-.489z"/>
  </defs>
  <clipPath id="SVGID_50_">
    <use xlink:href="#SVGID_49_" overflow="visible"/>
  </clipPath>
  <g clip-path="url(#SVGID_50_)">
    <defs>
      <path id="SVGID_51_" d="M-1266.612-167.743H464.92v1231.311h-1731.532z"/>
    </defs>
    <clipPath id="SVGID_52_">
      <use xlink:href="#SVGID_51_" overflow="visible"/>
    </clipPath>
    <path transform="rotate(-79 160.476565 48.89841)" clip-path="url(#SVGID_52_)" fill="#ff4100" d="M153.359 42.402h14.226v12.99h-14.226z"/>
  </g>
  <defs>
    <path id="SVGID_53_" d="M177.862 42.67c.257.08.507-.113.482-.374l-.091-1.481c-.016-.154-.113-.278-.253-.336-.257-.08-.507.113-.482.374l.091 1.481c.013.169.11.293.253.336z"/>
  </defs>
  <clipPath id="SVGID_54_">
    <use xlink:href="#SVGID_53_" overflow="visible"/>
  </clipPath>
  <g clip-path="url(#SVGID_54_)">
    <defs>
      <path id="SVGID_55_" d="M-1266.612-167.743H464.92v1231.311h-1731.532z"/>
    </defs>
    <clipPath id="SVGID_56_">
      <use xlink:href="#SVGID_55_" overflow="visible"/>
    </clipPath>
    <path transform="rotate(-79 177.936024 41.575975)" clip-path="url(#SVGID_56_)" fill="#ff4100" d="M170.828 35.004h14.207v13.141h-14.207z"/>
  </g>
  <defs>
    <path id="SVGID_57_" d="M168.214 40.888c-.068.349.342.579.615.346.055-.05.101-.131.116-.204l.283-1.454c.068-.349-.342-.579-.615-.346-.055.05-.101.131-.116.204l-.283 1.454z"/>
  </defs>
  <clipPath id="SVGID_58_">
    <use xlink:href="#SVGID_57_" overflow="visible"/>
  </clipPath>
  <g clip-path="url(#SVGID_58_)">
    <defs>
      <path id="SVGID_59_" d="M-1266.612-167.743H464.92v1231.311h-1731.532z"/>
    </defs>
    <clipPath id="SVGID_60_">
      <use xlink:href="#SVGID_59_" overflow="visible"/>
    </clipPath>
    <path transform="rotate(-79 168.724894 40.233794)" clip-path="url(#SVGID_60_)" fill="#ff4100" d="M161.598 33.848h14.245v12.769h-14.245z"/>
  </g>
  <defs>
    <path id="SVGID_61_" d="M159.378 38.751c.052-.035.107-.085.136-.155l.696-1.313c.17-.329-.2-.688-.526-.494-.052.035-.107.085-.136.155l-.681 1.316c-.171.329.185.685.511.491z"/>
  </defs>
  <clipPath id="SVGID_62_">
    <use xlink:href="#SVGID_61_" overflow="visible"/>
  </clipPath>
  <g clip-path="url(#SVGID_62_)">
    <defs>
      <path id="SVGID_63_" d="M-1266.612-167.743H464.92v1231.311h-1731.532z"/>
    </defs>
    <clipPath id="SVGID_64_">
      <use xlink:href="#SVGID_63_" overflow="visible"/>
    </clipPath>
    <path transform="rotate(-79 159.54191 37.772904)" clip-path="url(#SVGID_64_)" fill="#ff4100" d="M152.437 31.177h14.202v13.189h-14.202z"/>
  </g>
  <defs>
    <path id="SVGID_65_" d="M164.177 38.174c-.125.021-.233.106-.273.234l-.499 1.397c-.101.282.138.54.42.489.125-.021.233-.106.273-.234l.499-1.397c.098-.268-.137-.54-.42-.489z"/>
  </defs>
  <clipPath id="SVGID_66_">
    <use xlink:href="#SVGID_65_" overflow="visible"/>
  </clipPath>
  <g clip-path="url(#SVGID_66_)">
    <defs>
      <path id="SVGID_67_" d="M-1266.612-167.743H464.92v1231.311h-1731.532z"/>
    </defs>
    <clipPath id="SVGID_68_">
      <use xlink:href="#SVGID_67_" overflow="visible"/>
    </clipPath>
    <path transform="rotate(-79 164.005053 39.235362)" clip-path="url(#SVGID_68_)" fill="#ff4100" d="M156.888 32.74h14.225v12.987h-14.225z"/>
  </g>
  <defs>
    <path id="SVGID_69_" d="M172.608 45.272c-.058.064-.101.131-.104.221l-.119 1.471c-.021.343.395.544.641.29.058-.064.101-.131.104-.221l.12-1.471c.023-.357-.41-.547-.642-.29z"/>
  </defs>
  <clipPath id="SVGID_70_">
    <use xlink:href="#SVGID_69_" overflow="visible"/>
  </clipPath>
  <g clip-path="url(#SVGID_70_)">
    <defs>
      <path id="SVGID_71_" d="M-1266.612-167.743H464.92v1231.311h-1731.532z"/>
    </defs>
    <clipPath id="SVGID_72_">
      <use xlink:href="#SVGID_71_" overflow="visible"/>
    </clipPath>
    <path transform="rotate(-79 172.821801 46.262524)" clip-path="url(#SVGID_72_)" fill="#ff4100" d="M165.701 39.791h14.233v12.94h-14.233z"/>
  </g>
  <defs>
    <path id="SVGID_73_" d="M174.126 35.216c.021-.343-.395-.544-.641-.29-.058.064-.101.131-.104.221l-.12 1.471c-.021.343.395.544.641.29.058-.064.101-.131.104-.221l.12-1.471z"/>
  </defs>
  <clipPath id="SVGID_74_">
    <use xlink:href="#SVGID_73_" overflow="visible"/>
  </clipPath>
  <g clip-path="url(#SVGID_74_)">
    <defs>
      <path id="SVGID_75_" d="M-1266.612-167.743H464.92v1231.311h-1731.532z"/>
    </defs>
    <clipPath id="SVGID_76_">
      <use xlink:href="#SVGID_75_" overflow="visible"/>
    </clipPath>
    <path transform="rotate(-79 173.698564 35.917833)" clip-path="url(#SVGID_76_)" fill="#ff4100" d="M166.58 29.447h14.228v12.94H166.58z"/>
  </g>
  <defs>
    <path id="SVGID_77_" d="M177.565 37.498c.257.08.507-.113.482-.374l-.091-1.481c-.016-.154-.113-.278-.253-.336-.257-.08-.507.113-.482.374l.091 1.481c.001.151.11.293.253.336z"/>
  </defs>
  <clipPath id="SVGID_78_">
    <use xlink:href="#SVGID_77_" overflow="visible"/>
  </clipPath>
  <g clip-path="url(#SVGID_78_)">
    <defs>
      <path id="SVGID_79_" d="M-1266.612-167.743H464.92v1231.311h-1731.532z"/>
    </defs>
    <clipPath id="SVGID_80_">
      <use xlink:href="#SVGID_79_" overflow="visible"/>
    </clipPath>
    <path transform="rotate(-79 177.638766 36.403264)" clip-path="url(#SVGID_80_)" fill="#ff4100" d="M170.531 29.831h14.207v13.141h-14.207z"/>
  </g>
  <defs>
    <path id="SVGID_81_" d="M167.223 45.977c-.068.349.342.579.615.346.055-.05.101-.131.116-.204l.283-1.454c.068-.349-.342-.579-.615-.346-.055.05-.101.131-.116.204l-.283 1.454z"/>
  </defs>
  <clipPath id="SVGID_82_">
    <use xlink:href="#SVGID_81_" overflow="visible"/>
  </clipPath>
  <g clip-path="url(#SVGID_82_)">
    <defs>
      <path id="SVGID_83_" d="M-1266.612-167.743H464.92v1231.311h-1731.532z"/>
    </defs>
    <clipPath id="SVGID_84_">
      <use xlink:href="#SVGID_83_" overflow="visible"/>
    </clipPath>
    <path transform="rotate(-79 167.734065 45.322577)" clip-path="url(#SVGID_84_)" fill="#ff4100" d="M160.607 38.936h14.245v12.769h-14.245z"/>
  </g>
  <defs>
    <path id="SVGID_85_" d="M166.258 50.934c-.068.349.342.579.615.346.055-.05.101-.131.116-.204l.283-1.454c.068-.349-.342-.579-.615-.346-.055.05-.101.131-.116.204l-.283 1.454z"/>
  </defs>
  <clipPath id="SVGID_86_">
    <use xlink:href="#SVGID_85_" overflow="visible"/>
  </clipPath>
  <g clip-path="url(#SVGID_86_)">
    <defs>
      <path id="SVGID_87_" d="M-1266.612-167.743H464.92v1231.311h-1731.532z"/>
    </defs>
    <clipPath id="SVGID_88_">
      <use xlink:href="#SVGID_87_" overflow="visible"/>
    </clipPath>
    <path transform="rotate(-79 166.768752 50.279684)" clip-path="url(#SVGID_88_)" fill="#ff4100" d="M159.642 43.893h14.245v12.769h-14.245z"/>
  </g>
  <g>
    <defs>
      <path id="SVGID_89_" d="M165.408 55.296c-.068.349.342.579.615.346.055-.05.101-.131.116-.204l.283-1.454c.068-.349-.342-.579-.615-.346-.055.05-.101.131-.116.204l-.283 1.454z"/>
    </defs>
    <clipPath id="SVGID_90_">
      <use xlink:href="#SVGID_89_" overflow="visible"/>
    </clipPath>
    <g clip-path="url(#SVGID_90_)">
      <defs>
        <path id="SVGID_91_" d="M-1266.612-167.743H464.92v1231.311h-1731.532z"/>
      </defs>
      <clipPath id="SVGID_92_">
        <use xlink:href="#SVGID_91_" overflow="visible"/>
      </clipPath>
      <path transform="rotate(-79 165.919777 54.641373)" clip-path="url(#SVGID_92_)" fill="#ff4100" d="M158.793 48.255h14.245v12.769h-14.245z"/>
    </g>
  </g>
  <g>
    <defs>
      <path id="SVGID_93_" d="M169.82 36.146c.055-.05.101-.131.116-.204l.283-1.454c.068-.349-.342-.579-.615-.346-.055.05-.101.131-.116.204l-.283 1.454c-.068.349.356.582.615.346z"/>
    </defs>
    <clipPath id="SVGID_94_">
      <use xlink:href="#SVGID_93_" overflow="visible"/>
    </clipPath>
    <g clip-path="url(#SVGID_94_)">
      <defs>
        <path id="SVGID_95_" d="M-1266.612-167.743H464.92v1231.311h-1731.532z"/>
      </defs>
      <clipPath id="SVGID_96_">
        <use xlink:href="#SVGID_95_" overflow="visible"/>
      </clipPath>
      <path transform="rotate(-79 169.715945 35.14499)" clip-path="url(#SVGID_96_)" fill="#ff4100" d="M162.589 28.759h14.245v12.769h-14.245z"/>
    </g>
  </g>
  <g>
    <defs>
      <path id="SVGID_97_" d="M173.679 40.395c.021-.343-.395-.544-.641-.29-.058.064-.101.131-.104.221l-.119 1.471c-.021.343.395.544.641.29.058-.064.101-.131.104-.221l.119-1.471z"/>
    </defs>
    <clipPath id="SVGID_98_">
      <use xlink:href="#SVGID_97_" overflow="visible"/>
    </clipPath>
    <g clip-path="url(#SVGID_98_)">
      <defs>
        <path id="SVGID_99_" d="M-1266.612-167.743H464.92v1231.311h-1731.532z"/>
      </defs>
      <clipPath id="SVGID_100_">
        <use xlink:href="#SVGID_99_" overflow="visible"/>
      </clipPath>
      <path transform="rotate(-79 173.251402 41.096999)" clip-path="url(#SVGID_100_)" fill="#ff4100" d="M166.133 34.626h14.228v12.94h-14.228z"/>
    </g>
  </g>
  <g>
    <defs>
      <path id="SVGID_101_" d="M156.968 43.338c.052-.035.108-.085.136-.155l.696-1.313c.17-.329-.2-.688-.526-.494-.052.035-.107.085-.136.155l-.696 1.313c-.158.346.2.688.526.494z"/>
    </defs>
    <clipPath id="SVGID_102_">
      <use xlink:href="#SVGID_101_" overflow="visible"/>
    </clipPath>
    <g clip-path="url(#SVGID_102_)">
      <defs>
        <path id="SVGID_103_" d="M-1266.612-167.743H464.92v1231.311h-1731.532z"/>
      </defs>
      <clipPath id="SVGID_104_">
        <use xlink:href="#SVGID_103_" overflow="visible"/>
      </clipPath>
      <path transform="rotate(-79 157.126599 42.359903)" clip-path="url(#SVGID_104_)" fill="#ff4100" d="M150.02 35.759h14.205v13.2H150.02z"/>
    </g>
  </g>
  <g>
    <defs>
      <path id="SVGID_105_" d="M158.155 31.242l-.871 1.204c-.064.093-.083.195-.059.305.078.302.472.378.661.113l.871-1.204c.084-.12.101-.282.018-.404-.154-.226-.472-.227-.62-.014z"/>
    </defs>
    <clipPath id="SVGID_106_">
      <use xlink:href="#SVGID_105_" overflow="visible"/>
    </clipPath>
    <g clip-path="url(#SVGID_106_)">
      <defs>
        <path id="SVGID_107_" d="M-1266.612-167.743H464.92v1231.311h-1731.532z"/>
      </defs>
      <clipPath id="SVGID_108_">
        <use xlink:href="#SVGID_107_" overflow="visible"/>
      </clipPath>
      <path transform="rotate(-79 158.024065 32.056831)" clip-path="url(#SVGID_108_)" fill="#ff4100" d="M150.964 25.361h14.112v13.388h-14.112z"/>
    </g>
  </g>
  <g>
    <defs>
      <path id="SVGID_109_" d="M161.16 25.808c-.031-.006-.049.006-.079 0 .015.003.048-.006.079 0z"/>
    </defs>
    <clipPath id="SVGID_110_">
      <use xlink:href="#SVGID_109_" overflow="visible"/>
    </clipPath>
    <g clip-path="url(#SVGID_110_)">
      <defs>
        <path id="SVGID_111_" d="M-1266.612-167.743H464.92v1231.311h-1731.532z"/>
      </defs>
      <clipPath id="SVGID_112_">
        <use xlink:href="#SVGID_111_" overflow="visible"/>
      </clipPath>
      <path transform="rotate(-79 161.124429 25.808692)" clip-path="url(#SVGID_112_)" fill="#ff4100" d="M155.1 19.757h12.04v12.102H155.1z"/>
    </g>
  </g>
  <g>
    <defs>
      <path id="SVGID_113_" d="M154.863 37.091l.871-1.204c.084-.12.1-.282.018-.404-.139-.223-.469-.242-.619-.015l-.871 1.204c-.064.093-.083.195-.059.305.08.288.46.361.66.114z"/>
    </defs>
    <clipPath id="SVGID_114_">
      <use xlink:href="#SVGID_113_" overflow="visible"/>
    </clipPath>
    <g clip-path="url(#SVGID_114_)">
      <defs>
        <path id="SVGID_115_" d="M-1266.612-167.743H464.92v1231.311h-1731.532z"/>
      </defs>
      <clipPath id="SVGID_116_">
        <use xlink:href="#SVGID_115_" overflow="visible"/>
      </clipPath>
      <path transform="rotate(-79 155.003237 36.275893)" clip-path="url(#SVGID_116_)" fill="#ff4100" d="M147.947 29.58h14.105v13.388h-14.105z"/>
    </g>
  </g>
  <g>
    <defs>
      <path id="SVGID_117_" d="M161.761 27.445l-.582.807.582-.807z"/>
    </defs>
    <clipPath id="SVGID_118_">
      <use xlink:href="#SVGID_117_" overflow="visible"/>
    </clipPath>
    <g clip-path="url(#SVGID_118_)">
      <defs>
        <path id="SVGID_119_" d="M-1266.612-167.743H464.92v1231.311h-1731.532z"/>
      </defs>
      <clipPath id="SVGID_120_">
        <use xlink:href="#SVGID_119_" overflow="visible"/>
      </clipPath>
      <path transform="rotate(-79 161.47441 27.849741)" clip-path="url(#SVGID_120_)" fill="#ff4100" d="M155.006 21.628h12.928V34.07h-12.928z"/>
    </g>
  </g>
  <g>
    <defs>
      <path id="SVGID_121_" d="M161.656 25.829c-.03-.006-.064.003-.094-.003.033-.009.064-.003.094.003z"/>
    </defs>
    <clipPath id="SVGID_122_">
      <use xlink:href="#SVGID_121_" overflow="visible"/>
    </clipPath>
    <g clip-path="url(#SVGID_122_)">
      <defs>
        <path id="SVGID_123_" d="M-1266.612-167.743H464.92v1231.311h-1731.532z"/>
      </defs>
      <clipPath id="SVGID_124_">
        <use xlink:href="#SVGID_123_" overflow="visible"/>
      </clipPath>
      <path transform="rotate(-79 161.613369 25.828288)" clip-path="url(#SVGID_124_)" fill="#ff4100" d="M155.589 19.768h12.04v12.118h-12.04z"/>
    </g>
  </g>
  <g>
    <defs>
      <path id="SVGID_125_" d="M152.087 39.66l-.871 1.204c-.064.093-.083.195-.06.305.078.302.472.378.661.113l.871-1.204c.084-.12.1-.282.018-.404-.141-.208-.457-.224-.619-.014z"/>
    </defs>
    <clipPath id="SVGID_126_">
      <use xlink:href="#SVGID_125_" overflow="visible"/>
    </clipPath>
    <g clip-path="url(#SVGID_126_)">
      <defs>
        <path id="SVGID_127_" d="M-1266.612-167.743H464.92v1231.311h-1731.532z"/>
      </defs>
      <clipPath id="SVGID_128_">
        <use xlink:href="#SVGID_127_" overflow="visible"/>
      </clipPath>
      <path transform="rotate(-79 151.955588 40.478552)" clip-path="url(#SVGID_128_)" fill="#ff4100" d="M144.899 33.783h14.105v13.389h-14.105z"/>
    </g>
  </g>
  <g>
    <defs>
      <path id="SVGID_129_" d="M154.555 47.94c.052-.035.108-.085.136-.155l.695-1.313c.17-.329-.2-.688-.526-.494-.052.035-.107.085-.136.155l-.696 1.313c-.154.331.204.672.527.494z"/>
    </defs>
    <clipPath id="SVGID_130_">
      <use xlink:href="#SVGID_129_" overflow="visible"/>
    </clipPath>
    <g clip-path="url(#SVGID_130_)">
      <defs>
        <path id="SVGID_131_" d="M-1266.612-167.743H464.92v1231.311h-1731.532z"/>
      </defs>
      <clipPath id="SVGID_132_">
        <use xlink:href="#SVGID_131_" overflow="visible"/>
      </clipPath>
      <path transform="rotate(-79 154.714684 46.957242)" clip-path="url(#SVGID_132_)" fill="#ff4100" d="M147.613 40.356h14.196v13.2h-14.196z"/>
    </g>
  </g>
  <g>
    <defs>
      <path id="SVGID_133_" d="M152.463 50.582c-.052.035-.108.085-.136.155l-.696 1.313c-.17.329.2.688.526.494.052-.035.107-.085.136-.155l.696-1.313c.158-.347-.2-.688-.526-.494z"/>
    </defs>
    <clipPath id="SVGID_134_">
      <use xlink:href="#SVGID_133_" overflow="visible"/>
    </clipPath>
    <g clip-path="url(#SVGID_134_)">
      <defs>
        <path id="SVGID_135_" d="M-1266.612-167.743H464.92v1231.311h-1731.532z"/>
      </defs>
      <clipPath id="SVGID_136_">
        <use xlink:href="#SVGID_135_" overflow="visible"/>
      </clipPath>
      <path transform="rotate(-79 152.312456 51.562973)" clip-path="url(#SVGID_136_)" fill="#ff4100" d="M145.206 44.962h14.205v13.2h-14.205z"/>
    </g>
  </g>
  <g>
    <defs>
      <path id="SVGID_137_" d="M163.311 54.787c-.003.015-.003.015 0 0 .013.018-.003.015 0 0z"/>
    </defs>
    <clipPath id="SVGID_138_">
      <use xlink:href="#SVGID_137_" overflow="visible"/>
    </clipPath>
    <g clip-path="url(#SVGID_138_)">
      <defs>
        <path id="SVGID_139_" d="M-1266.612-167.743H464.92v1231.311h-1731.532z"/>
      </defs>
      <clipPath id="SVGID_140_">
        <use xlink:href="#SVGID_139_" overflow="visible"/>
      </clipPath>
      <path transform="rotate(-79 163.317799 54.79536)" clip-path="url(#SVGID_140_)" fill="#ff4100" d="M157.296 48.778h12.036v12.031h-12.036z"/>
    </g>
  </g>
  <g>
    <defs>
      <path id="SVGID_141_" d="M173.641 11.614c.055-.125.162-.21.276-.248.114-.038.248-.027.374.027.126.055.211.162.25.275.039.113.028.247-.027.372s-.162.21-.276.248c-.114.038-.248.027-.374-.027-.126-.055-.211-.162-.25-.275-.039-.113-.028-.247.027-.372zm-.103 1.308c.305.15.637.154.929.06.291-.094.561-.313.711-.616.15-.303.154-.634.058-.924-.095-.29-.316-.559-.62-.709-.305-.15-.637-.154-.929-.06-.291.094-.561.313-.711.616-.15.303-.154.634-.058.924.092.304.316.559.62.709z"/>
    </defs>
    <clipPath id="SVGID_142_">
      <use xlink:href="#SVGID_141_" overflow="visible"/>
    </clipPath>
    <g clip-path="url(#SVGID_142_)">
      <defs>
        <path id="SVGID_143_" d="M-1266.612-167.743H464.92v1231.311h-1731.532z"/>
      </defs>
      <clipPath id="SVGID_144_">
        <use xlink:href="#SVGID_143_" overflow="visible"/>
      </clipPath>
      <path transform="rotate(-79 174.08168 11.82768)" clip-path="url(#SVGID_144_)" fill="#ff4100" d="M166.846 4.589h14.463v14.476h-14.463z"/>
    </g>
  </g>
  <g>
    <defs>
      <path id="SVGID_145_" d="M154.145 21.942s-.003.015 0 0z"/>
    </defs>
    <clipPath id="SVGID_146_">
      <use xlink:href="#SVGID_145_" overflow="visible"/>
    </clipPath>
    <g clip-path="url(#SVGID_146_)">
      <defs>
        <path id="SVGID_147_" d="M-1266.612-167.743H464.92v1231.311h-1731.532z"/>
      </defs>
      <clipPath id="SVGID_148_">
        <use xlink:href="#SVGID_147_" overflow="visible"/>
      </clipPath>
      <path transform="rotate(-79 154.148224 21.946276)" clip-path="url(#SVGID_148_)" fill="#ff4100" d="M148.129 15.933h12.031v12.025h-12.031z"/>
    </g>
  </g>
  <g>
    <defs>
      <path id="SVGID_149_" d="M171.195 29.396c.068-.349-.339-.594-.615-.346-.055.05-.101.131-.116.204.014-.073.06-.154.116-.204.272-.233.682-.003.615.346z"/>
    </defs>
    <clipPath id="SVGID_150_">
      <use xlink:href="#SVGID_149_" overflow="visible"/>
    </clipPath>
    <g clip-path="url(#SVGID_150_)">
      <defs>
        <path id="SVGID_151_" d="M-1266.612-167.743H464.92v1231.311h-1731.532z"/>
      </defs>
      <clipPath id="SVGID_152_">
        <use xlink:href="#SVGID_151_" overflow="visible"/>
      </clipPath>
      <path transform="rotate(-79 170.869632 29.141864)" clip-path="url(#SVGID_152_)" fill="#ff4100" d="M164.665 22.756h12.401v12.769h-12.401z"/>
    </g>
  </g>
  <g>
    <defs>
      <path id="SVGID_153_" d="M177.361 28.496c1.682.477 3.168.947 4.248 1.398-1.083-.437-2.566-.921-4.248-1.398-1.079-.3-2.234-.6-3.427-.861-.304-.074-.611-.134-.918-.193 1.515.323 2.991.685 4.345 1.054z"/>
    </defs>
    <clipPath id="SVGID_154_">
      <use xlink:href="#SVGID_153_" overflow="visible"/>
    </clipPath>
    <g clip-path="url(#SVGID_154_)">
      <defs>
        <path id="SVGID_155_" d="M-1266.612-167.743H464.92v1231.311h-1731.532z"/>
      </defs>
      <clipPath id="SVGID_156_">
        <use xlink:href="#SVGID_155_" overflow="visible"/>
      </clipPath>
      <path transform="rotate(-79 177.317047 28.668316)" clip-path="url(#SVGID_156_)" fill="#ff4100" d="M170.917 18.204h12.792v20.927h-12.792z"/>
    </g>
  </g>
  <g>
    <defs>
      <path id="SVGID_157_" d="M174.568 30.066l-.027.372.027-.372c.024-.357-.395-.544-.641-.29-.041.052-.081.105-.092.163.011-.058.052-.111.092-.163.246-.254.662-.053.641.29z"/>
    </defs>
    <clipPath id="SVGID_158_">
      <use xlink:href="#SVGID_157_" overflow="visible"/>
    </clipPath>
    <g clip-path="url(#SVGID_158_)">
      <defs>
        <path id="SVGID_159_" d="M-1266.612-167.743H464.92v1231.311h-1731.532z"/>
      </defs>
      <clipPath id="SVGID_160_">
        <use xlink:href="#SVGID_159_" overflow="visible"/>
      </clipPath>
      <path transform="rotate(-79 174.22558 30.017207)" clip-path="url(#SVGID_160_)" fill="#ff4100" d="M167.856 23.609h12.731v12.813h-12.731z"/>
    </g>
  </g>
  <g>
    <defs>
      <path id="SVGID_161_" d="M205.161 27.353l-16.733.64c-.126-.13-.267-.263-.423-.399-1.183-1.015-3.201-2.025-5.68-2.93l8.935-6.17c2.543.887 5.683 2.131 8.36 3.496 2.633 1.357 4.809 2.806 5.459 4.139.109.217.16.423.185.609.002.228-.023.434-.103.615zm-.681.772c-.177.132-.384.257-.619.378-1.01.513-2.447.882-4.03 1.148-3.978.645-8.827.623-10.355.522-.091-.003-.181-.005-.257-.005.123-.474.035-.959-.252-1.437l15.513-.606zm-16.31 2.443c-.125.096-.221.199-.316.301-.131.126-.246.254-.404.359-.551-1.691-4.042-3.396-8.567-4.773-2.235-.676-4.709-1.292-7.222-1.781-2.514-.489-5.036-.858-7.364-1.054-4.712-.418-8.575-.128-9.717 1.219-.092-.154-.166-.319-.225-.481-.05-.131-.116-.264-.181-.397-.304-.934.308-1.585 1.511-2 3.102-1.057 9.806-.584 16.368.692 6.562 1.276 12.954 3.348 15.435 5.49.99.84 1.314 1.673.682 2.425zm-1.098.888c-.681.305-1.821.476-3.228.534.215-.169.357-.353.387-.589.212-1.166-2.684-2.498-6.671-3.605-1.898-.535-4.047-1.028-6.21-1.449-2.163-.42-4.34-.768-6.3-.983-4.111-.467-7.28-.314-7.535.844-.045.233.003.453.142.676-1.282-.581-2.261-1.164-2.779-1.702.859-1.297 4.685-1.549 9.411-1.128 2.296.205 4.818.574 7.317 1.06 2.499.486 4.961 1.085 7.181 1.758 4.522 1.393 7.975 3.06 8.285 4.584zm-6.241.507l-.009-.032c-.242-.002-.487.011-.759.003l-.226-1.025.234 1.056c-.751-.04-1.545-.089-2.336-.152l.003-.015c-.24-.016-.491-.05-.745-.069l-.069-1.205.063 1.234c-.52-.056-1.028-.094-1.548-.15-.324-.048-.666-.084-.99-.132l.008-.044c-.251-.034-.485-.079-.736-.113l.076-.936-.084.979c-.915-.133-1.853-.3-2.788-.482l.003-.015.009-.044c-.234-.045-.482-.094-.731-.142l-.008.044-.003.015c-.862-.168-1.707-.347-2.549-.541l.026-.055c-.246-.063-.479-.108-.725-.171l.465-1.298c.04-.128.148-.213.273-.234.143-.033.269.022.357.115-.088-.093-.214-.147-.354-.129-.125.021-.233.106-.273.234l-.49 1.353c-.406-.094-.81-.203-1.214-.311-.445-.132-.892-.249-1.319-.392l.646-1.217c.17-.329-.2-.688-.526-.494.326-.193.681.163.511.492l-.629 1.206c-.246-.063-.488-.14-.731-.218l-.003.015c-.857-.272-1.685-.539-2.496-.817l.02-.026c-.255-.095-.477-.198-.702-.287l-.023.041c-1.443-.612-2.32-1.175-2.212-1.652.076-.393 1.018-.556 2.475-.56-.015-.003-.029-.006-.044-.009 2.192-.042 5.824.393 9.527 1.082-1.815-.338-3.601-.594-5.234-.776-.92-.103-1.77-.178-2.55-.224.78.046 1.644.123 2.55.224 1.928.224 4.108.557 6.242.972.175.034.351.068.526.102.745.145 1.473.301 2.198.473 3.213.715 6.114 1.551 7.801 2.316-.029-.006-.07-.029-.1-.034 1.221.509 1.933.979 1.862 1.343-.093.478-1.087.678-2.669.702zM139.655 14.62c-.004-.212.032-.401.13-.593.092-.163.217-.335.4-.496 1.1-.978 3.648-1.524 6.613-1.793 2.994-.263 6.374-.255 9.061-.11l5.973 9.067c-2.637-.09-4.886.091-6.363.589-.195.068-.376.138-.542.212l-15.272-6.876zm13.715 8.565c-.07-.029-.155-.06-.24-.092-1.454-.479-5.959-2.275-9.405-4.363-1.369-.839-2.563-1.72-3.307-2.574-.174-.2-.318-.394-.433-.582l14.156 6.373c-.444.336-.704.738-.771 1.238zm5.851-11.295c.193.022.359.025.496.021 4.195.348 8.928 1.041 13.637 1.942l-1.502 8.037c-3.145-.596-6.31-1.015-9.104-1.151l-5.961-9.05c.947.047 1.782.119 2.434.201zm8.347.128c-.02.026-.026.055-.046.082-.281-.039-.561-.079-.842-.118-.021-.049-.027-.096-.033-.142 0-.076.016-.163.045-.233.055-.125.162-.21.276-.248.114-.038.248-.027.374.027.126.055.211.162.25.275.039.113.031.232-.024.357zm3.408-.288c-.055.125-.162.21-.276.248-.114.038-.248.027-.374-.027-.123-.069-.197-.159-.235-.272-.039-.113-.028-.247.027-.372s.162-.21.276-.248c.114-.038.248-.027.374.027.123.069.197.159.235.272.036.128.028.247-.027.372zm-10.011-.618c.592-.473 1.203-.883 1.849-1.24 3.595-2.032 7.956-2.542 12.093-1.738 4.121.801 7.989 2.911 10.561 6.142.462.588.875 1.196 1.25 1.842.033.067.08.136.098.2-.658-.203-1.319-.392-2.012-.572-.027-.096-.071-.18-.13-.267-.115-.188-.297-.344-.505-.445l-.015-.003c-.305-.15-.637-.154-.932-.045-.146.047-.297.123-.41.237-.319-.077-.649-.171-.968-.249l.003-.015c.15-.303.154-.634.058-.924-.095-.29-.316-.559-.621-.709l-.015-.003c-.305-.15-.637-.154-.932-.045-.291.094-.547.316-.694.604l-.003.015c-.078.166-.112.34-.116.521-.553-.122-1.117-.262-1.669-.385.047-.006.079-.015.114-.038.291-.094.561-.313.711-.616l.023-.041c.133-.291.131-.593.035-.883-.095-.29-.316-.559-.62-.709-.305-.15-.637-.154-.929-.06-.291.094-.561.313-.711.616l-.023.041c-.132.291-.13.593-.035.883.077.226.222.42.406.562-.976-.205-1.938-.407-2.917-.597-.965-.187-1.947-.363-2.914-.536.279-.112.515-.307.647-.598l.023-.041c.132-.291.13-.593.035-.883-.095-.29-.316-.559-.621-.709l-.041-.023c-.293-.132-.596-.131-.888-.037-.291.094-.561.313-.711.616-.15.303-.154.634-.058.924.068.194.184.383.354.521-.485-.079-.97-.158-1.455-.238.098-.268.09-.541.004-.799-.095-.29-.316-.559-.621-.709-.305-.15-.637-.154-.929-.06-.291.094-.562.313-.711.616-.098.192-.138.396-.13.593-.251-.034-.503-.068-.754-.101-.03-.081-.077-.151-.109-.217-.118-.174-.274-.31-.481-.41-.305-.15-.637-.154-.932-.045-.227.077-.436.217-.581.415l.012.017c-.771-.09-1.531-.162-2.273-.246.062-.018.117-.068.19-.129zm20.129 3.656c-.014-.003-.014-.003 0 0-.26-.066-.506-.129-.766-.194-.021-.049-.039-.113-.042-.174-.001-.076.014-.148.04-.204.052-.111.159-.195.273-.234.114-.038.251-.042.359.025.126.055.211.162.25.275.039.113.028.247-.027.372-.02.026-.029.07-.064.093-.003.015-.02.027-.023.041-.014-.003 0 0 0 0zm-3.934-2.153c.069-.122.162-.21.276-.248.114-.038.248-.027.374.027.126.055.211.162.25.275.039.113.028.247-.027.372-.069.122-.159.195-.273.234-.114.038-.248.027-.374-.027l-.015-.003c-.126-.055-.197-.159-.235-.272-.042-.099-.031-.233.024-.358zm10.402 4.693c.126.055.281.115.468.166.646.186 1.433.429 2.346.728l-8.917 6.158c-2.645-.906-5.748-1.721-8.872-2.343l1.501-8.037c4.733.935 9.423 2.088 13.474 3.328zm18.426 9.376c-.022-.276-.117-.566-.257-.865-.728-1.484-3.018-3.046-5.789-4.475-3.737-1.918-8.372-3.589-11.081-4.402-.313-.106-.644-.201-.957-.307-.179-.095-.232-.211-.303-.391-.062-.148-.136-.313-.249-.516-.398-.681-.832-1.339-1.32-1.947-2.681-3.373-6.712-5.575-10.995-6.407-4.282-.832-8.845-.301-12.594 1.822-.681.381-1.326.814-1.953 1.31-.18.146-.311.272-.424.385-.131.126-.226.228-.428.249-.342-.036-.672-.055-1.002-.074l.015.003c-2.813-.275-7.739-.448-11.923-.07-3.102.272-5.813.877-7.043 1.98-.255.222-.438.458-.562.706-.502.944-.151 1.947.714 2.96.794.909 2.053 1.847 3.492 2.716 3.499 2.129 8.077 3.939 9.557 4.438.184.066.31.121.404.184.065.058.114.113.147.179.009.032.035.052.044.084.08.136.13.267.181.397.122.31.261.609.546.936.659.747 2.08 1.551 3.901 2.327.995.42 2.113.833 3.292 1.243.834.313 1.776.617 2.797.906 1.881.547 4 1.034 6.149 1.452 2.134.415 4.299.745 6.245.957.935.106 1.849.163 2.678.189 1.349.081 2.646.122 3.805.091 1.964-.041 3.569-.257 4.459-.702.387-.196.613-.424.857-.663.096-.102.206-.201.316-.301.02-.026.052-.035.072-.061.055-.05.122-.082.204-.111.111-.024.251-.042.444-.019 1.545.089 6.482.128 10.524-.534 1.659-.266 3.163-.668 4.255-1.21 1.193-.597 1.894-1.397 1.782-2.459z"/>
    </defs>
    <clipPath id="SVGID_162_">
      <use xlink:href="#SVGID_161_" overflow="visible"/>
    </clipPath>
    <g clip-path="url(#SVGID_162_)">
      <defs>
        <path id="SVGID_163_" d="M-1266.612-167.743H464.92v1231.311h-1731.532z"/>
      </defs>
      <clipPath id="SVGID_164_">
        <use xlink:href="#SVGID_163_" overflow="visible"/>
      </clipPath>
      <path transform="rotate(-79 172.704688 19.444304)" clip-path="url(#SVGID_164_)" fill="#ff4100" d="M154.395-20.715h36.611v80.318h-36.611z"/>
    </g>
  </g>
  <g>
    <defs>
      <path id="SVGID_165_" d="M170.962 54.054l-.003.015.003-.015z"/>
    </defs>
    <clipPath id="SVGID_166_">
      <use xlink:href="#SVGID_165_" overflow="visible"/>
    </clipPath>
    <g clip-path="url(#SVGID_166_)">
      <defs>
        <path id="SVGID_167_" d="M-1266.612-167.743H464.92v1231.311h-1731.532z"/>
      </defs>
      <clipPath id="SVGID_168_">
        <use xlink:href="#SVGID_167_" overflow="visible"/>
      </clipPath>
      <path transform="rotate(-79 170.965088 54.063155)" clip-path="url(#SVGID_168_)" fill="#ff4100" d="M164.941 48.049h12.04v12.025h-12.04z"/>
    </g>
  </g>
  <g>
    <defs>
      <path id="SVGID_169_" d="M162.282 25.859c-.091-.002-.181-.004-.269-.021.091.002.179.019.269.021z"/>
    </defs>
    <clipPath id="SVGID_170_">
      <use xlink:href="#SVGID_169_" overflow="visible"/>
    </clipPath>
    <g clip-path="url(#SVGID_170_)">
      <defs>
        <path id="SVGID_171_" d="M-1266.612-167.743H464.92v1231.311h-1731.532z"/>
      </defs>
      <clipPath id="SVGID_172_">
        <use xlink:href="#SVGID_171_" overflow="visible"/>
      </clipPath>
      <path transform="rotate(-79 162.152019 25.849744)" clip-path="url(#SVGID_172_)" fill="#ff4100" d="M156.12 19.702h12.056v12.293H156.12z"/>
    </g>
  </g>
  <g>
    <defs>
      <path id="SVGID_173_" d="M180.578 30.749l.255 1.181z"/>
    </defs>
    <clipPath id="SVGID_174_">
      <use xlink:href="#SVGID_173_" overflow="visible"/>
    </clipPath>
    <g clip-path="url(#SVGID_174_)">
      <defs>
        <path id="SVGID_175_" d="M-1266.612-167.743H464.92v1231.311h-1731.532z"/>
      </defs>
      <clipPath id="SVGID_176_">
        <use xlink:href="#SVGID_175_" overflow="visible"/>
      </clipPath>
      <path transform="rotate(-79 180.710023 31.340993)" clip-path="url(#SVGID_176_)" fill="#ff4100" d="M174.138 25.09h13.135v12.501h-13.135z"/>
    </g>
  </g>
  <g>
    <defs>
      <path id="SVGID_177_" d="M170.579 29.051c-.055.05-.101.131-.116.204l-.275 1.41c.249.048.482.094.731.142l.275-1.41c.068-.35-.342-.58-.615-.346z"/>
    </defs>
    <clipPath id="SVGID_178_">
      <use xlink:href="#SVGID_177_" overflow="visible"/>
    </clipPath>
    <g clip-path="url(#SVGID_178_)">
      <defs>
        <path id="SVGID_179_" d="M-1266.612-167.743H464.92v1231.311h-1731.532z"/>
      </defs>
      <clipPath id="SVGID_180_">
        <use xlink:href="#SVGID_179_" overflow="visible"/>
      </clipPath>
      <path transform="rotate(-79 170.731564 29.850278)" clip-path="url(#SVGID_180_)" fill="#ff4100" d="M163.812 23.465h13.831v12.769h-13.831z"/>
    </g>
  </g>
  <g>
    <defs>
      <path id="SVGID_181_" d="M161.156 25.804c.134.011.272.007.406.018.029.006.061-.003.091.002.12.008.24.016.362.01.09.002.181.005.269.022.044.009.076 0 .12.008.78.046 1.644.123 2.55.223 1.633.181 3.43.454 5.234.774-3.706-.674-7.335-1.122-9.527-1.079.015.003.029.006.044.009.123-.006.242.002.362.01.027.006.059-.003.089.003z"/>
    </defs>
    <clipPath id="SVGID_182_">
      <use xlink:href="#SVGID_181_" overflow="visible"/>
    </clipPath>
    <g clip-path="url(#SVGID_182_)">
      <defs>
        <path id="SVGID_183_" d="M-1266.612-167.743H464.92v1231.311h-1731.532z"/>
      </defs>
      <clipPath id="SVGID_184_">
        <use xlink:href="#SVGID_183_" overflow="visible"/>
      </clipPath>
      <path transform="rotate(-79 165.427015 26.323393)" clip-path="url(#SVGID_184_)" fill="#ff4100" d="M159.031 15.531h12.783v21.583h-12.783z"/>
    </g>
  </g>
  <g>
    <defs>
      <path id="SVGID_185_" d="M160.702 25.796c.123-.008.243 0 .363.007-.12-.007-.243 0-.363-.007z"/>
    </defs>
    <clipPath id="SVGID_186_">
      <use xlink:href="#SVGID_185_" overflow="visible"/>
    </clipPath>
    <g clip-path="url(#SVGID_186_)">
      <defs>
        <path id="SVGID_187_" d="M-1266.612-167.743H464.92v1231.311h-1731.532z"/>
      </defs>
      <clipPath id="SVGID_188_">
        <use xlink:href="#SVGID_187_" overflow="visible"/>
      </clipPath>
      <path transform="rotate(-79 160.887386 25.800636)" clip-path="url(#SVGID_188_)" fill="#ff4100" d="M154.84 19.609h12.087v12.382H154.84z"/>
    </g>
  </g>
  <g>
    <defs>
      <path id="SVGID_189_" d="M161.561 25.824c-.134-.01-.272-.005-.406-.016.12.008.257.003.406.016z"/>
    </defs>
    <clipPath id="SVGID_190_">
      <use xlink:href="#SVGID_189_" overflow="visible"/>
    </clipPath>
    <g clip-path="url(#SVGID_190_)">
      <defs>
        <path id="SVGID_191_" d="M-1266.612-167.743H464.92v1231.311h-1731.532z"/>
      </defs>
      <clipPath id="SVGID_192_">
        <use xlink:href="#SVGID_191_" overflow="visible"/>
      </clipPath>
      <path transform="rotate(-79 161.361968 25.817259)" clip-path="url(#SVGID_192_)" fill="#ff4100" d="M155.315 19.603h12.087v12.426h-12.087z"/>
    </g>
  </g>
  <g>
    <defs>
      <path id="SVGID_193_" d="M162.014 25.836c-.12-.007-.24-.015-.363-.007.12.008.243 0 .363.007z"/>
    </defs>
    <clipPath id="SVGID_194_">
      <use xlink:href="#SVGID_193_" overflow="visible"/>
    </clipPath>
    <g clip-path="url(#SVGID_194_)">
      <defs>
        <path id="SVGID_195_" d="M-1266.612-167.743H464.92v1231.311h-1731.532z"/>
      </defs>
      <clipPath id="SVGID_196_">
        <use xlink:href="#SVGID_195_" overflow="visible"/>
      </clipPath>
      <path transform="rotate(-79 161.836649 25.833761)" clip-path="url(#SVGID_196_)" fill="#ff4100" d="M155.789 19.642h12.087v12.382h-12.087z"/>
    </g>
  </g>
  <g>
    <defs>
      <path id="SVGID_197_" d="M160.477 27.965l.686-.953z"/>
    </defs>
    <clipPath id="SVGID_198_">
      <use xlink:href="#SVGID_197_" overflow="visible"/>
    </clipPath>
    <g clip-path="url(#SVGID_198_)">
      <defs>
        <path id="SVGID_199_" d="M-1266.612-167.743H464.92v1231.311h-1731.532z"/>
      </defs>
      <clipPath id="SVGID_200_">
        <use xlink:href="#SVGID_199_" overflow="visible"/>
      </clipPath>
      <path transform="rotate(-79 160.824296 27.48956)" clip-path="url(#SVGID_200_)" fill="#ff4100" d="M154.274 21.231h13.091v12.516h-13.091z"/>
    </g>
  </g>
  <g>
    <defs>
      <path id="SVGID_201_" d="M162.408 25.869c-.046-.009-.079 0-.125-.008.033-.01.079-.001.125.008z"/>
    </defs>
    <clipPath id="SVGID_202_">
      <use xlink:href="#SVGID_201_" overflow="visible"/>
    </clipPath>
    <g clip-path="url(#SVGID_202_)">
      <defs>
        <path id="SVGID_203_" d="M-1266.612-167.743H464.92v1231.311h-1731.532z"/>
      </defs>
      <clipPath id="SVGID_204_">
        <use xlink:href="#SVGID_203_" overflow="visible"/>
      </clipPath>
      <path transform="rotate(-79 162.349315 25.86548)" clip-path="url(#SVGID_204_)" fill="#ff4100" d="M156.325 19.79h12.04v12.149h-12.04z"/>
    </g>
  </g>
  <g>
    <defs>
      <path id="SVGID_205_" d="M161.779 27.041c-.139-.223-.469-.242-.619-.015l-.686.953c.225.089.448.193.702.287l.582-.807c.087-.133.104-.296.021-.418z"/>
    </defs>
    <clipPath id="SVGID_206_">
      <use xlink:href="#SVGID_205_" overflow="visible"/>
    </clipPath>
    <g clip-path="url(#SVGID_206_)">
      <defs>
        <path id="SVGID_207_" d="M-1266.612-167.743H464.92v1231.311h-1731.532z"/>
      </defs>
      <clipPath id="SVGID_208_">
        <use xlink:href="#SVGID_207_" overflow="visible"/>
      </clipPath>
      <path transform="rotate(-79 161.174393 27.534476)" clip-path="url(#SVGID_208_)" fill="#ff4100" d="M154.439 20.923h13.462v13.221h-13.462z"/>
    </g>
  </g>
  <g>
    <defs>
      <path id="SVGID_209_" d="M163.675 29.069c-.003.015-.003.015-.006.029.243.077.474.137.731.217l.629-1.206c.17-.329-.188-.67-.511-.491-.052.035-.107.085-.133.14l-.71 1.311z"/>
    </defs>
    <clipPath id="SVGID_210_">
      <use xlink:href="#SVGID_209_" overflow="visible"/>
    </clipPath>
    <g clip-path="url(#SVGID_210_)">
      <defs>
        <path id="SVGID_211_" d="M-1266.612-167.743H464.92v1231.311h-1731.532z"/>
      </defs>
      <clipPath id="SVGID_212_">
        <use xlink:href="#SVGID_211_" overflow="visible"/>
      </clipPath>
      <path transform="rotate(-79 164.399723 28.409217)" clip-path="url(#SVGID_212_)" fill="#ff4100" d="M157.494 21.814h13.803v13.188h-13.803z"/>
    </g>
  </g>
  <g>
    <defs>
      <path id="SVGID_213_" d="M164.356 27.752l-.695 1.313-.003.015c.003-.015.003-.015.006-.029l.692-1.299c.043-.067.084-.12.136-.155-.055.05-.093.088-.136.155z"/>
    </defs>
    <clipPath id="SVGID_214_">
      <use xlink:href="#SVGID_213_" overflow="visible"/>
    </clipPath>
    <g clip-path="url(#SVGID_214_)">
      <defs>
        <path id="SVGID_215_" d="M-1266.612-167.743H464.92v1231.311h-1731.532z"/>
      </defs>
      <clipPath id="SVGID_216_">
        <use xlink:href="#SVGID_215_" overflow="visible"/>
      </clipPath>
      <path transform="rotate(-79 164.078946 28.33998)" clip-path="url(#SVGID_216_)" fill="#ff4100" d="M157.255 22.059h13.639V34.62h-13.639z"/>
    </g>
  </g>
  <g>
    <defs>
      <path id="SVGID_217_" d="M173.933 27.639c-.725-.172-1.456-.314-2.198-.474.439.085.859.183 1.283.265.304.075.608.149.915.209z"/>
    </defs>
    <clipPath id="SVGID_218_">
      <use xlink:href="#SVGID_217_" overflow="visible"/>
    </clipPath>
    <g clip-path="url(#SVGID_218_)">
      <defs>
        <path id="SVGID_219_" d="M-1266.612-167.743H464.92v1231.311h-1731.532z"/>
      </defs>
      <clipPath id="SVGID_220_">
        <use xlink:href="#SVGID_219_" overflow="visible"/>
      </clipPath>
      <path transform="rotate(-79 172.83871 27.40299)" clip-path="url(#SVGID_220_)" fill="#ff4100" d="M166.799 20.266h12.07v14.273h-12.07z"/>
    </g>
  </g>
  <g>
    <defs>
      <path id="SVGID_221_" d="M173.015 27.445c-.421-.097-.859-.183-1.283-.265.424.082.863.168 1.283.265z"/>
    </defs>
    <clipPath id="SVGID_222_">
      <use xlink:href="#SVGID_221_" overflow="visible"/>
    </clipPath>
    <g clip-path="url(#SVGID_222_)">
      <defs>
        <path id="SVGID_223_" d="M-1266.612-167.743H464.92v1231.311h-1731.532z"/>
      </defs>
      <clipPath id="SVGID_224_">
        <use xlink:href="#SVGID_223_" overflow="visible"/>
      </clipPath>
      <path transform="rotate(-79 172.378346 27.313633)" clip-path="url(#SVGID_224_)" fill="#ff4100" d="M166.354 20.645h12.04V33.98h-12.04z"/>
    </g>
  </g>
  <g>
    <defs>
      <path id="SVGID_225_" d="M174.45 31.401l.077-.966-.077.966z"/>
    </defs>
    <clipPath id="SVGID_226_">
      <use xlink:href="#SVGID_225_" overflow="visible"/>
    </clipPath>
    <g clip-path="url(#SVGID_226_)">
      <defs>
        <path id="SVGID_227_" d="M-1266.612-167.743H464.92v1231.311h-1731.532z"/>
      </defs>
      <clipPath id="SVGID_228_">
        <use xlink:href="#SVGID_227_" overflow="visible"/>
      </clipPath>
      <path transform="rotate(-79 174.493195 30.919252)" clip-path="url(#SVGID_228_)" fill="#ff4100" d="M167.995 24.852h12.987v12.133h-12.987z"/>
    </g>
  </g>
  <g>
    <defs>
      <path id="SVGID_229_" d="M177.406 30.134c-.257-.08-.507.113-.482.374l.069 1.205c.251.034.505.053.745.069l-.075-1.327c-.019-.139-.116-.264-.257-.321z"/>
    </defs>
    <clipPath id="SVGID_230_">
      <use xlink:href="#SVGID_229_" overflow="visible"/>
    </clipPath>
    <g clip-path="url(#SVGID_230_)">
      <defs>
        <path id="SVGID_231_" d="M-1266.612-167.743H464.92v1231.311h-1731.532z"/>
      </defs>
      <clipPath id="SVGID_232_">
        <use xlink:href="#SVGID_231_" overflow="visible"/>
      </clipPath>
      <path transform="rotate(-79 177.364485 30.954771)" clip-path="url(#SVGID_232_)" fill="#ff4100" d="M170.532 24.413h13.656v13.082h-13.656z"/>
    </g>
  </g>
  <g>
    <defs>
      <path id="SVGID_233_" d="M177.659 30.47l.075 1.327-.075-1.327z"/>
    </defs>
    <clipPath id="SVGID_234_">
      <use xlink:href="#SVGID_233_" overflow="visible"/>
    </clipPath>
    <g clip-path="url(#SVGID_234_)">
      <defs>
        <path id="SVGID_235_" d="M-1266.612-167.743H464.92v1231.311h-1731.532z"/>
      </defs>
      <clipPath id="SVGID_236_">
        <use xlink:href="#SVGID_235_" overflow="visible"/>
      </clipPath>
      <path transform="rotate(-79 177.701531 31.134406)" clip-path="url(#SVGID_236_)" fill="#ff4100" d="M171.04 24.958h13.313V37.31H171.04z"/>
    </g>
  </g>
  <g>
    <defs>
      <path id="SVGID_237_" d="M173.836 29.939c-.003.015-.008.044-.011.058l-.022.358.022-.358c.003-.014.009-.043.011-.058z"/>
    </defs>
    <clipPath id="SVGID_238_">
      <use xlink:href="#SVGID_237_" overflow="visible"/>
    </clipPath>
    <g clip-path="url(#SVGID_238_)">
      <defs>
        <path id="SVGID_239_" d="M-1266.612-167.743H464.92v1231.311h-1731.532z"/>
      </defs>
      <clipPath id="SVGID_240_">
        <use xlink:href="#SVGID_239_" overflow="visible"/>
      </clipPath>
      <path transform="rotate(-79 173.824072 30.14823)" clip-path="url(#SVGID_240_)" fill="#ff4100" d="M167.6 24.112h12.439v12.071H167.6z"/>
    </g>
  </g>
  <g>
    <defs>
      <path id="SVGID_241_" d="M174.568 30.066c.021-.343-.395-.544-.641-.29-.041.052-.081.105-.092.163-.003.015-.009.044-.011.058l-.024.357-.076.936c.251.034.485.079.736.113l.082-.965.026-.372z"/>
    </defs>
    <clipPath id="SVGID_242_">
      <use xlink:href="#SVGID_241_" overflow="visible"/>
    </clipPath>
    <g clip-path="url(#SVGID_242_)">
      <defs>
        <path id="SVGID_243_" d="M-1266.612-167.743H464.92v1231.311h-1731.532z"/>
      </defs>
      <clipPath id="SVGID_244_">
        <use xlink:href="#SVGID_243_" overflow="visible"/>
      </clipPath>
      <path transform="rotate(-79 174.18161 30.516311)" clip-path="url(#SVGID_244_)" fill="#ff4100" d="M167.317 24.057h13.719v12.917h-13.719z"/>
    </g>
  </g>
  <g>
    <defs>
      <path id="SVGID_245_" d="M180.578 30.749c-.063-.223-.294-.359-.51-.265-.166.073-.247.254-.219.425l.225 1.024c.257.005.514.009.759-.004l-.255-1.18z"/>
    </defs>
    <clipPath id="SVGID_246_">
      <use xlink:href="#SVGID_245_" overflow="visible"/>
    </clipPath>
    <g clip-path="url(#SVGID_246_)">
      <defs>
        <path id="SVGID_247_" d="M-1266.612-167.743H464.92v1231.311h-1731.532z"/>
      </defs>
      <clipPath id="SVGID_248_">
        <use xlink:href="#SVGID_247_" overflow="visible"/>
      </clipPath>
      <path transform="rotate(-79 180.36859 31.235269)" clip-path="url(#SVGID_248_)" fill="#ff4100" d="M173.609 24.629h13.51V37.84h-13.51z"/>
    </g>
  </g>
  <g>
    <defs>
      <path id="SVGID_249_" d="M168.025 28.54c-.088-.093-.214-.147-.357-.115-.125.021-.233.106-.273.234l-.465 1.298c.246.063.48.108.725.171l.436-1.228c.057-.14.022-.268-.066-.36z"/>
    </defs>
    <clipPath id="SVGID_250_">
      <use xlink:href="#SVGID_249_" overflow="visible"/>
    </clipPath>
    <g clip-path="url(#SVGID_250_)">
      <defs>
        <path id="SVGID_251_" d="M-1266.612-167.743H464.92v1231.311h-1731.532z"/>
      </defs>
      <clipPath id="SVGID_252_">
        <use xlink:href="#SVGID_251_" overflow="visible"/>
      </clipPath>
      <path transform="rotate(-79 167.555421 29.239902)" clip-path="url(#SVGID_252_)" fill="#ff4100" d="M160.686 22.754h13.73v12.971h-13.73z"/>
    </g>
  </g>
  <g>
    <defs>
      <path id="SVGID_253_" d="M181.609 29.893c.015.003.015.003.029.006.029.006.07.029.099.034-1.672-.762-4.588-1.599-7.801-2.313 1.205.279 2.362.564 3.442.864 1.665.489 3.148.973 4.231 1.409z"/>
    </defs>
    <clipPath id="SVGID_254_">
      <use xlink:href="#SVGID_253_" overflow="visible"/>
    </clipPath>
    <g clip-path="url(#SVGID_254_)">
      <defs>
        <path id="SVGID_255_" d="M-1266.612-167.743H464.92v1231.311h-1731.532z"/>
      </defs>
      <clipPath id="SVGID_256_">
        <use xlink:href="#SVGID_255_" overflow="visible"/>
      </clipPath>
      <path transform="rotate(-79 177.841884 28.777711)" clip-path="url(#SVGID_256_)" fill="#ff4100" d="M171.434 18.715h12.807v20.123h-12.807z"/>
    </g>
  </g>
  <g>
    <defs>
      <path id="SVGID_257_" d="M168.106 28.902c.043-.143.007-.27-.064-.374.071.104.106.232.064.374l-.448 1.211.448-1.211z"/>
    </defs>
    <clipPath id="SVGID_258_">
      <use xlink:href="#SVGID_257_" overflow="visible"/>
    </clipPath>
    <g clip-path="url(#SVGID_258_)">
      <defs>
        <path id="SVGID_259_" d="M-1266.612-167.743H464.92v1231.311h-1731.532z"/>
      </defs>
      <clipPath id="SVGID_260_">
        <use xlink:href="#SVGID_259_" overflow="visible"/>
      </clipPath>
      <path transform="rotate(-79 167.921132 29.334466)" clip-path="url(#SVGID_260_)" fill="#ff4100" d="M161.09 23.216h13.654v12.236H161.09z"/>
    </g>
  </g>
  <g>
    <defs>
      <path id="SVGID_261_" d="M181.638 29.918l-.03-.006.03.006z"/>
    </defs>
    <clipPath id="SVGID_262_">
      <use xlink:href="#SVGID_261_" overflow="visible"/>
    </clipPath>
    <g clip-path="url(#SVGID_262_)">
      <defs>
        <path id="SVGID_263_" d="M-1266.612-167.743H464.92v1231.311h-1731.532z"/>
      </defs>
      <clipPath id="SVGID_264_">
        <use xlink:href="#SVGID_263_" overflow="visible"/>
      </clipPath>
      <path transform="rotate(-79 181.627757 29.915773)" clip-path="url(#SVGID_264_)" fill="#ff4100" d="M175.611 23.887h12.025v12.056h-12.025z"/>
    </g>
  </g>
</svg>
