<svg id="Layer_1" xmlns="http://www.w3.org/2000/svg" xmlns:xlink="http://www.w3.org/1999/xlink" viewBox="0 0 209 82">
  <style>
    .st0{fill:#63c6bf}
  </style>
  <path class="st0" d="M22.361 39.928h-1.574c0-2.748-2.236-4.984-4.985-4.984V33.37c2.749 0 4.985-2.236 4.985-4.985h1.574c0 2.749 2.236 4.985 4.985 4.985v1.574c-2.749-.001-4.985 2.236-4.985 4.984zm-3.446-5.772c1.124.608 2.05 1.535 2.659 2.658.608-1.123 1.535-2.05 2.659-2.658-1.124-.608-2.05-1.535-2.659-2.659-.609 1.124-1.535 2.051-2.659 2.659zM72.734 63.016H71.16c0-2.748-2.236-4.984-4.984-4.984v-1.574c2.748 0 4.984-2.236 4.984-4.985h1.574c0 2.749 2.236 4.985 4.985 4.985v1.574c-2.748-.001-4.985 2.236-4.985 4.984zm-3.445-5.772c1.123.608 2.05 1.535 2.658 2.658.608-1.123 1.535-2.05 2.659-2.658-1.124-.608-2.051-1.535-2.659-2.659-.608 1.124-1.535 2.051-2.658 2.659zM84.278 42.026h-1.574c0-2.748-2.236-4.984-4.984-4.984v-1.574c2.748 0 4.984-2.236 4.984-4.984h1.574c0 2.748 2.236 4.984 4.984 4.984v1.574c-2.747 0-4.984 2.236-4.984 4.984zm-3.445-5.771c1.123.608 2.05 1.535 2.658 2.658.608-1.123 1.535-2.05 2.658-2.658-1.123-.608-2.05-1.535-2.658-2.658-.608 1.123-1.535 2.049-2.658 2.658zM121.009 51.472h-1.574c0-2.748-2.236-4.984-4.984-4.984v-1.574c2.748 0 4.984-2.236 4.984-4.985h1.574c0 2.749 2.236 4.985 4.985 4.985v1.574c-2.749-.001-4.985 2.236-4.985 4.984zm-3.446-5.772c1.123.608 2.05 1.535 2.658 2.658.608-1.123 1.535-2.05 2.659-2.658-1.124-.608-2.051-1.535-2.659-2.659-.608 1.124-1.534 2.051-2.658 2.659z"/>
  <defs>
    <path id="SVGID_1_" d="M158.188 29.45c-.264-1.024-.822-1.764-1.18-2.715-.007-.008-.014-.017-.02-.025-1.394-1.919-3.405-1.693-4.575-1.484.564.711 1.333 1.397 2.178 2.026 1.17.872 2.481 1.63 3.597 2.198zm7.14 3.635c.146-.843.291-1.685.493-2.518-.334-.456-.628-.944-.896-1.441.06 1.162.029 2.258-.125 3.413.127.086.395.41.528.546zm5.236 5.132c-.015-.482.104-1.003.328-1.493.137-.3.594-.092.457.209-.198.432-.3.887-.281 1.3.016.344.118.657.322.897 1.287 1.359 2.5 2.338 3.597 2.883 3.477 1.729 5.163-1.004 2.823-4.427-.393-.575-1.75-2.363-3.13-3.981-.685-.802-1.372-1.559-1.943-2.097-.825 1.988-1.852 3.951-2.91 5.828.241.298.486.592.737.881zm11.804-12.468c-.255.211-.575-.177-.321-.388.631-.523 1.391-.684 2.179-.453.317.093.175.575-.142.482-.628-.184-1.213-.057-1.716.359zm3.895 6.654c-.287.164-.537-.273-.25-.437.551-.315 1.15-.374 1.756-.193.317.094.173.577-.144.482-.475-.142-.929-.1-1.362.148zm1.955 3.371c.33.014.308.516-.022.502-2.08-.092-1.498 2.172-1.076 3.425.105.313-.371.473-.476.159-.554-1.645-.994-4.199 1.574-4.086zm2.643-1.329c.316-.097.463.383.148.48-.746.229-.223 2.106.014 2.589.145.296-.306.517-.451.22-.387-.789-.891-2.927.289-3.289zm-25.501 4.213c-.124.307-.591.118-.466-.189.563-1.388 1.647-2.378 3.071-1.392.271.187-.014.601-.285.413-1.143-.79-1.891.109-2.32 1.168zm-5.443-2.259c-.021.33-.523.298-.502-.031.115-1.827 1.517-3.245 2.959-1.739.229.238-.133.586-.362.348-1.209-1.263-2.023.283-2.095 1.422zm21.82 15.548c-.066.122-.218.168-.34.102-.122-.066-.168-.218-.102-.34l.186-.347c-.172-.047-.347-.058-.503-.025-.136.028-.269-.059-.297-.195-.028-.136.059-.269.195-.297.397-.084.857.015 1.236.248.356.218.647.557.756.976.034.134-.047.271-.181.305-.134.034-.271-.047-.305-.181-.064-.25-.232-.461-.445-.614l-.2.368zm4.528 3.456c-.046-.131.024-.274.154-.32.131-.046.274.024.32.154l.209.595c.046.131-.023.274-.154.32-.131.046-.274-.024-.32-.154l-.209-.595zm-.256 2.963c.03-.141.085-.279.169-.397-.165-.086-.321-.168-.452-.234-.462-.232-.443-.053-.148.296.104.123.249.241.431.335zm-3.206 10.68c.918-.101 1.679-.248 2.147-.44 1.328-2.2-.235-3.829-1.894-5.559-1.641-1.711-3.366-3.509-2.943-6.093-.044-.009-.088-.018-.133-.026-.729 2.221.483 4.125 1.629 5.925 1.302 2.046 2.526 3.971 1.194 6.193zm-8.608-.291c1.139.307 3.138.46 5.151.46.812 0 1.623-.025 2.375-.075.004-.006.008-.011.012-.016 1.594-2.014.422-3.854-.83-5.821-1.241-1.949-2.553-4.01-1.741-6.57-1.077-.333-2.035-.996-2.017-2.244.007-.55.843-.54.836.01-.015 1.073 1.269 1.446 2.12 1.601 1.807.33 3.099 1.12 4.184 2.604.301.411.758.568 1.151.577.553.023.306-.1.086-.228-.121-.07-.231-.149-.33-.234-1.092-.932-.787-2.519.815-1.872.387.156.77.393 1.06.541.656.337.909.444.705-.383-.106-.429-.336-.85-.244-1.368.12-.676-1.092-1.823-1.567-2.24-1.063-.932-1.539-1.593-1.947-2.161-.249-.346-.471-.655-.796-.963-.738-.703-.542-1.172-.136-1.598.396-.416.634-.574.953-1.12.613-1.048-.018-.495-.421-.271-.777.431-1.7.691-2.687.968-2.756.776-4.864 1.683-6.641 4.1-2.287 3.111-1.891 6.117-.757 9.57.627 1.902 1.234 3.752.666 6.733zm-.873.581c-1.002.535-1.193.806-.789 1.927.54 1.497.021 1.961-.953 2.981-.735.769-1.664 1.742-1.821 2.654-.08.464.082.951.43 1.273 1.732 1.6 16.427 1.602 18.161 0 .009-.009.018-.017.025-.025.322-.348.513-.745.494-1.225-.041-1.07-1.096-2.217-1.854-3.042l-.054-.058c-1.002-1.091-.718-2.073-.469-2.938.194-.673.358-1.24-.898-1.659-.009.006-.019.012-.028.017-.969.543-3.605.815-6.22.815-2.455-.001-4.93-.241-6.024-.72zm16.007 8.939c.05.37.056.707-.002 1.021-.074.404-.27.803-.574 1.084-1.964 1.814-17.236 1.86-19.019-.071-.475-.514-.71-1.471-.586-2.152-.231-.438-.3-.91-.216-1.4.2-1.164 1.228-2.24 2.041-3.091.764-.799 1.171-1.016.772-2.122-.484-1.343-.323-2.17 1.019-2.862.32-.165.634-.327.707-.691.34-2.427-.192-4.048-.737-5.711-1.222-3.722-1.578-6.983.878-10.324 1.896-2.579 4.144-3.582 7.09-4.412 1.229-.346 2.256-.48 3.011-1.12.686-.39 1.452-.006 1.368.786-.095.776-.812 1.534-1.391 2.141-.086.091-.117.202.106.414.377.359.622.699.897 1.082.382.531.828 1.15 1.819 2.02.757.664 2.037 1.921 1.842 3.014-.044.249.125.691.229 1.101.171.68.098 1.566-.789 1.596-.391.013-.818-.194-1.159-.37-.116.097-.153.294-.152.441 1.404 1.084-1.563 2.198-2.874.551-.716-.979-1.533-1.643-2.684-2.029-.297 2.137 1.255 3.756 2.733 5.296 1.755 1.83 3.416 3.561 2.313 5.996 1.903.645 1.638 1.563 1.324 2.652-.188.652-.402 1.393.282 2.138l.054.058c.845.919 2.021 2.198 2.074 3.58.02.499-.111.963-.376 1.384zm-19.312.778c.019.276.177.546.355.71 1.649 1.523 16.389 1.544 17.836-.022.183-.198.278-.422.31-.687-2.966 1.539-15.537 1.542-18.501-.001zm4.315-5.765c-.134-.035-.214-.173-.179-.307s.173-.214.307-.179c1.15.305 3.101.453 5.029.442 1.909-.01 3.786-.175 4.83-.493.133-.04.273.035.313.167s-.035.273-.167.313c-1.09.333-3.021.504-4.974.515-1.969.011-3.969-.142-5.159-.458zm-39.266-54.506c-.541-.101-.387-.925.154-.823 4.739.89 6.577 5.138 11.34 6.358 1.499.384 3.086.446 4.799.234.86-.106 1.622-.319 2.52-.306-.578-.494-1.046-1.2-1.278-1.922-.101-.315.377-.468.478-.153.305.945 1.047 1.851 1.989 2.212-.231-.369-.323-.571-.367-1.024-.039-.329.461-.388.5-.059.114.935.69 1.306 1.364 1.798-.123-.643-.177-1.293-.124-1.947.043-.55.879-.484.836.066-.08.979.121 1.936.395 2.87.515 1.756 1.405 2.406 1.552 4.628.113 1.71-.242 3.263-.468 4.969-.359 2.718 2.582 3.033 3.866 1.189 1.124-1.614 1.533-5.015 1.49-7.038-.485-.253-1.86-.395-2.321-.24-.313.105-.473-.371-.159-.476.521-.175 1.89-.05 2.462.162-.017-.352-.042-.702-.076-1.046-.077-.77-.198-1.506-.365-2.149-.538-2.077-2.241-6.312-2.105-8.06.041-.55.877-.488.836.062-.118 1.524 1.582 5.873 2.078 7.786.407 1.479 1.641 4.071 2.817 5.082.418.358-.126.994-.544.636-.08-.068-.159-.142-.237-.22-.216 1.018-.361 2.048-.567 3.067-.349 1.725-1.874 3.336-1.879 4.428-.011 2.086 2.394 2.564 3.956-.117.397-.681.82-1.34 1.209-2.029 1.024-1.816 2.069-3.784 2.821-5.688.199-.503.558-1.043-.023-1.224-.684-.213-1.663.046-2.182.39-.275.181-.551-.238-.275-.419.737-.486 1.997-.739 2.833-.36-.075-1.382-1.787-5.627-2.35-7.092-.26-.636-1.745-3.852-2.09-5.054-.226-.786.609-.757.752-.29 0 .002.961 2.611 1.928 4.55 2.774-1.327 9.799 7.299 11.155 9.752 1.208 2.185 1.721 4.711 2.499 7.074 1.055 3.205 5.397 3.606 5.202 1.866-.119-1.058-.787-3.462-.613-4.394.462-2.462-1.362-5.925-2.702-8.467-1.705-3.237-4.848-6.244-7.862-8.93-.561-.5-3.758-3.307-4.823-4.356-.621-.611.21-.85.512-.527.54.483 4.363 3.81 4.819 4.217 3.096 2.762 6.33 5.854 8.096 9.206 1.397 2.651 3.3 6.263 2.784 9.011-.067.358.061 1.145.219 1.963l.006.027c.23 1.22 3.499 2.026 3.231-.455-.12-1.108-1.037-2.878-1.497-3.954-3.357-7.846-5.845-10.757-11.919-16.786-2.062-2.048-4.078-3.843-5.372-4.532-3.483-1.855-17.466-2.317-23.484-4.103-4.441-1.319-8.577-3.305-11.226-6.347-.152-.175-.134-.44.041-.592.175-.152.44-.134.592.041 2.531 2.906 6.526 4.817 10.829 6.094 6.221 1.847 19.876 2.164 23.641 4.169 1.376.733 3.457 2.58 5.569 4.676 6.15 6.105 8.698 9.103 12.099 17.052.529 1.235 1.469 3.018 1.564 4.315.169 2.305-2.04 2.968-3.762 1.99.04.222.072.423.091.591.33 2.932-5.466 2.634-6.832-1.512-.756-2.295-1.267-4.814-2.437-6.933-1.105-1.999-8.017-10.486-10.117-9.363.579 1.579 2.36 5.92 2.293 7.375-.014.312-.073.619-.177.964.649.573 1.463 1.459 2.266 2.4 1.402 1.643 2.784 3.465 3.186 4.053 2.948 4.311.193 7.679-3.886 5.65-1.096-.545-2.285-1.474-3.531-2.744-.597-.609-1.163-1.249-1.705-1.906-.21.356-.438.693-.647 1.052-2.089 3.586-5.532 2.496-5.517-.306.008-1.481 1.582-2.978 1.922-4.721l-.005-.007c-.09-.138-.286-.339-.478-.534l-.021-.022c-.227 1.219-.622 2.767-1.323 3.773-1.795 2.577-5.857 1.8-5.384-1.776.229-1.735.612-3.327.437-5.101-1.251-.602-2.857-1.494-4.272-2.548-1.037-.773-1.975-1.636-2.608-2.545-1.821.228-3.517.161-5.13-.252-4.833-1.242-6.901-5.525-11.288-6.349z"/>
  </defs>
  <clipPath id="SVGID_2_">
    <use xlink:href="#SVGID_1_" overflow="visible"/>
  </clipPath>
  <g clip-path="url(#SVGID_2_)">
    <defs>
      <path id="SVGID_3_" d="M-432.312-137.427h1511.205V937.208H-432.312z"/>
    </defs>
    <clipPath id="SVGID_4_">
      <use xlink:href="#SVGID_3_" overflow="visible"/>
    </clipPath>
    <path clip-path="url(#SVGID_4_)" fill="#63c6bf" d="M129.482-4.147h69.765v91.143h-69.765z"/>
  </g>
</svg>
