<svg id="Layer_1" xmlns="http://www.w3.org/2000/svg" xmlns:xlink="http://www.w3.org/1999/xlink" viewBox="0 0 209 82">
  <style>
    .st2{fill:#ffe644}
  </style>
  <defs>
    <path id="SVGID_1_" d="M178.838 11.943c-1.367-.363-2.224-.737-2.995-1.071-1.11-.485-2.021-.882-4.308-1.003.01.078.015.16.029.242l.005.029v.126c0 .586-.005 1.052-.121 1.662-.053.286-.141.446-.208.567-.005.01.01-.015.17.15l.16.17-.053.228c-.199.834.402 2.409.926 3.673.005.015.015.029.019.044.044.107.087.213.131.315.058.136.111.271.165.397.145.3.291.504.446.645.213.194.47.257.785.271.741.029 1.09-.262 1.623-.698.165-.136.349-.286.562-.446.804-.606.804-.8.804-1.648v-.102c0-.237.189-.426.426-.426s.426.189.426.426v.102c0 1.192 0 1.473-1.144 2.331-.199.15-.373.291-.533.426-.213.179-.407.334-.606.47.552.32 1.115.562 1.623.659.349.068.664.058.901-.044.208-.092.373-.281.465-.582.121-.388.131-.95-.01-1.725-.097-.47-.165-.94-.208-1.342-.048-.46-.063-.848-.044-1.061.019-.199.145-.402.305-.659.325-.533.858-1.41.267-2.108l-.008-.018zm-7.221-3.779c2.602.136 3.639.586 4.909 1.144.712.31 1.507.659 2.777.993.005-.024.01-.048.015-.073l.005-.029c.073-.334.111-.654.107-.96 0-.78-.242-1.454-.654-1.968-.407-.509-.989-.867-1.667-1.018-.247-.053-.509-.082-.78-.082h-.029c-1.793-.116-3.106.092-3.896.717-.388.305-.654.727-.795 1.279l.008-.003zm2.593 19.364c-.024.111-.039.223-.048.334h.005c.092-.048.189-.121.286-.208-.082-.039-.16-.082-.242-.121v-.005zm-5.801 12.6c-.034.111-.063.228-.097.354l-.005.024-.005.019c-1.585 4.148-2.297 5.859-2.675 6.76-.174.422-.276.664-.359.897-.116.325-.199.649-.397 1.42-.111.422-.252.96-.426 1.628l1.304-1.09-.145 3.005c.092.053.664-.044 1.502.092 1.061.174 2.413.339 3.61.397.727.034 1.391.029 1.885-.039.005-.019.01-.039.015-.063.048-.257.121-.62.339-1.153.141-.349.368-.572.649-.848.296-.291.654-.649.969-1.279.116-.233.208-.446.296-.645.363-.843.606-1.401 1.609-1.59 1.182-.228 1.342.029 1.953 1.013l.063.102c.359.577.858 1.081 1.41 1.551 1.052-1.255 2.268-2.224 3.63-2.888 1.265-.611 2.656-.955 4.163-.998-.562-1.105-1.488-2.287-3.053-3.625-.47-.397-.8-.708-1.018-1.086-.519.325-1.425.843-2.331 1.144-1.551.504-2.646.3-3.867.068-.528-.102-1.081-.204-1.706-.252-3.208-.237-4.051-.814-5.384-1.725-.509-.349-1.09-.746-1.919-1.192h-.01zm25.524-16.913c-.087-.194-.271-.349-.552-.359-.315-.01-.528.16-.625.378-.044.097-.068.204-.068.31 0 .102.019.199.058.286.082.179.281.31.606.3.31-.01.504-.16.586-.349.039-.087.058-.184.058-.281 0-.097-.019-.194-.058-.286h-.005zm-4.841 3.528c.698.417 1.716.887 2.699 1.095.485.102.955.141 1.357.073.359-.063.664-.208.877-.48.136-.17.237-.397.3-.683.01-.044.005-.189 0-.407-.005-.383-.015-.94.039-1.643-.698.751-1.803 1.284-3.882 1.512-.325.044-.819.257-1.391.538v-.005zm-2.631-3.183c.092-.029.179-.058.271-.087 1.347-.436 2.607-.969 3.562-1.551-.034-.01-.073-.019-.111-.029-.373-.019-.698-.179-.993-.407-.591.189-1.163.489-1.667.892-.413.329-.772.726-1.062 1.182zm13.312-15.852c.218-.519.407-1.032.562-1.527.402-1.299.562-2.442.465-3.315-.082-.771-.354-1.308-.824-1.507-.029-.01-.063-.024-.102-.039-.737-.228-1.696.179-2.656.945-1.129.906-2.229 2.302-2.995 3.78-.247.475-.46.979-.635 1.488-.422 1.212-.635 2.462-.582 3.484.048.93.31 1.653.834 1.924.044.024.092.044.136.058.538.189 1.749-.267 3.034-1.391 1.013-.882 2.031-2.181 2.762-3.906v.006zm-5.748 6.164c.116.334.199.664.252.989.068.412.087.814.078 1.212.271-.044.543-.048.804-.019.111-.669.267-1.401.596-2.2.068-.165.145-.334.233-.509-.761.393-1.454.562-1.958.523l-.005.004zm-43.963 57.489c-.291-.194-.393-.431-.373-1.124.024-.848-.349-1.086-.625-1.26-.087-.053-.17-.107-.242-.17-.286-.233-.46-.412-.567-.674-.01-.029-.024-.058-.034-.087-1.279.514-2.152.916-2.888 1.318-.814.446-1.478.901-2.35 1.517-.33.233-.741.426-1.163.625-.62.291-1.265.596-1.536.989-.155.228-.208.465-.189.688.019.184.092.368.208.543.121.184.291.349.494.485.426.291.998.451 1.604.388.853-.087 1.362-.31 1.832-.519.145-.063.291-.126.426-.179.717-.281 1.139-.562 1.58-.853.412-.271.834-.552 1.497-.853.431-.194.906-.354 1.386-.514.32-.107.635-.213.935-.33l.005.01zm3.586-7.114c-.111.228-.165.475-.17.717-.005.354.097.712.286 1.037.189.33.47.62.819.834.339.208.751.339 1.202.359.552-.756 1.27-.887 2.137-1.042.955-.174 2.132-.388 3.416-1.788.737-.804.95-.897 1.391-1.081.257-.111.606-.257 1.27-.688.538-.349 1.032-.741 1.502-1.168.475-.431.911-.887 1.333-1.362.446-.504.964-1.357 1.512-2.258.746-1.231 1.546-2.549 2.379-3.32h-.048c-1.236-.058-2.622-.233-3.707-.407-1.241-.204-2.161-.519-2.215-.771-.01-.034-.01-.073-.01-.107l.058-1.163-.751.63c-.242.848-.528 1.798-.867 2.738-.407 1.124-.892 2.224-1.483 3.106-.378.567-1.347 1.071-2.554 1.696-1.788.926-4.134 2.142-5.495 4.051l-.005-.013zm.591 3.373c-.034-.019-.063-.039-.097-.058-.47-.286-.853-.683-1.115-1.134-.233-.402-.373-.848-.397-1.299-.436.276-.935.63-.955.645-.465.422-.921.635-1.367.843-.47.223-.926.436-1.318.935.005.111.019.194.048.257.044.097.141.194.315.334.039.034.102.073.165.111.451.286 1.061.669 1.023 2.001-.01.402.068.436.296.548.044.019.092.044.145.073l.063-.048c.257-.204.393-.31.494-.426.111-.131.223-.325.46-.737l.073-.126c.136-.237.334-.509.674-.824.32-.3.775-.649 1.444-1.066.019-.01.039-.024.053-.034l-.004.005zm29.76 5.845c-.029-.194-.111-.315-.223-.383-.179-.107-.451-.121-.741-.087-.276.034-.615.373-.96.712l-.126.126c-.233.228-.456.397-.678.528-.233.131-.465.218-.712.276-.204.048-.422.082-.674.073-.257-.01-.528-.073-.824-.218-.126-.063-.233-.131-.33-.208-.058.344-.116.678-.228.993-.296.838-.412 1.371-.281 1.691.116.281.504.456 1.221.601.315.063.485.048.645.029.218-.024.426-.044.804.039.775.17.93.538 1.115.979.092.223.199.475.514.703.611.436 1.391.654 2.268.751.921.102 1.943.078 3 .044.494-.019.819-.087 1.003-.194.073-.039.107-.082.107-.121.005-.092-.044-.218-.141-.373-.291-.475-.926-1.052-1.677-1.614l-.257-.194c-1.565-1.158-2.593-1.919-2.82-4.163l-.005.01zm.489-4.415c-.257.024-.538.015-.824-.024-.344-.048-.693-.136-1.023-.257-.334-.121-.645-.276-.901-.456-.044-.034-.087-.063-.131-.097-.116.417-.247.824-.388 1.241-.116.354-.233.712-.334 1.047-.044.155-.499 1.686-1.119 1.905-.363.136-.582.378-.732.674-.01.048-.01.092-.01.141.005.097.044.199.111.291.063.082.16.16.291.223.179.087.339.126.485.131.15.005.3-.019.446-.053.17-.039.33-.097.485-.189.16-.092.325-.218.504-.393l.121-.121c.451-.446.892-.892 1.464-.96.15-.019.3-.024.446-.019-.01-.063-.01-.131-.01-.208.01-.32.131-.809.441-1.628l.01-.029.005-.01c.044-.087.048-.102.053-.111.024-.063.034-.087.131-.252.208-.339.359-.611.475-.838l.004-.008zm-2.612-1.9c-.029.131.116.3.349.46.194.136.436.257.708.354.271.097.567.174.848.213.552.078 1.042.044 1.168-.17.16-.378.354-.79.814-1.497l.01-.015.015-.015c.582-.746 1.323-1.735 1.968-2.864.635-1.11 1.178-2.346 1.371-3.601.194-1.212.485-1.992.698-2.554l.01-.029c.165-.431.208-.785.17-1.129-.044-.354-.184-.712-.383-1.139-.737-1.56-.858-2.932-.969-4.294-.092-1.056-.179-2.108-.591-3.227-1.522 0-2.912.315-4.163.921-1.25.606-2.365 1.497-3.339 2.661.155.121.315.242.47.363.901.698 1.788 1.381 2.389 2.234.368.46.669.94 1.023 1.502l.029.044c.092.145.189.276.281.397.383.514.712.955.62 1.948l-.015.184-.145.111c-.548.431-1.153 1.493-1.638 2.675-.509 1.245-.863 2.598-.853 3.484v.034l-.005.034c-.092.586-.383 1.483-.64 2.283-.073.218-.141.431-.199.625v.007zm2.796-2.379c-.097.107-.257.111-.363.019-.107-.097-.111-.257-.019-.363.693-.756 1.129-1.415 1.376-2.132.252-.717.32-1.512.276-2.53-.005-.141.107-.262.247-.267.141-.005.262.107.267.247.048 1.081-.029 1.934-.305 2.719-.276.79-.741 1.502-1.483 2.312l.004-.005zm-27.908 1.08c-.053.131-.204.189-.334.136-.131-.053-.189-.204-.136-.334.048-.116.107-.233.17-.344.063-.116.131-.228.208-.334.359-.514.834-.95 1.367-1.289.577-.368 1.221-.635 1.856-.785.136-.034.276.053.305.189.034.136-.053.276-.189.305-.582.136-1.173.383-1.696.717-.48.31-.906.698-1.221 1.149-.063.092-.126.189-.179.291-.053.097-.102.194-.145.3h-.006zm13.578-32.013c-.034-.111-.078-.237-.121-.373-.058-.155-.126-.33-.213-.528-.271-.635-.286-1.226-.3-1.88-.019-.741-.044-1.575-.504-2.646-.145-.339-.233-.422-.296-.48-.17-.16-.271-.257-.344-.809-.039-.271-.034-.577-.029-.887.005-.286.01-.577-.024-.809-.053-.349-.126-.451-.223-.586-.087-.116-.184-.247-.291-.475-.131-.276-.252-.751-.315-1.231-.058-.441-.068-.897-.005-1.226.281-1.464 1.628-2.127 2.835-2.723.708-.349 1.362-.674 1.575-1.066-.039-.097-.082-.204-.126-.31-.107-.223-.213-.48-.32-.775-.528-1.284-1.134-2.874-1.008-3.959-.431-.485-.349-.635-.15-.989.039-.073.092-.165.121-.315.102-.543.107-.969.107-1.507v-.073c-.237-1.895.165-3.174 1.163-3.969.969-.771 2.476-1.032 4.478-.901.325 0 .64.039.94.102.877.194 1.623.659 2.152 1.318.528.659.834 1.517.834 2.501 0 .354-.039.727-.121 1.11-.073.494-.228.708-.383.926-.058.078-.116.16-.165.276.804 1.11.116 2.239-.315 2.942-.102.17-.184.3-.184.305-.019.155 0 .475.044.877l.01.082c.489-.596 1.129-.979 1.817-1.173.858-.242 1.788-.199 2.573.078.204.073.397.16.582.262.315.174.591.388.838.62.237.223.446.46.625.693.305.383.693.737 1.11 1.119.417.378.863.785 1.313 1.299.204.228.402.528.615.843.48.712 1.032 1.536 1.609 1.556h.034l.029.005c.291.053.475.141.625.213.078.034.131.063.184.044.063-.039.121-.078.17-.116l.024-.019c.145-.111.247-.223.33-.32l.155-1.047.005-.039c.063-.257.082-.591.107-.921.048-.683.092-1.357.475-1.735.344-.339.717-.596 1.095-.771.034-.441.024-.887-.048-1.342-.082-.509-.252-1.032-.533-1.57l.097-.048c-.528-.509-.795-1.333-.848-2.312-.058-1.134.174-2.496.63-3.809.189-.548.422-1.086.683-1.594.819-1.58 2.001-3.077 3.223-4.056 1.173-.94 2.404-1.42 3.441-1.095.053.019.116.039.179.068.78.33 1.226 1.115 1.342 2.205.107.989-.063 2.249-.499 3.659-.16.509-.359 1.047-.591 1.604-.548 1.299-1.25 2.37-1.997 3.223l.019.019c-1.061 1.052-1.667 2.016-2.035 2.898-.31.746-.451 1.449-.552 2.094.494.218.906.577 1.182 1.042.271.456.402 1.013.339 1.638l-.005.034-.005.019c-.145.62-.426.945-.746 1.308-.199.233-.417.48-.601.848-.218.436-.397.867-.562 1.275-.451 1.779-.426 3.16-.417 3.877.005.276.01.47-.019.596-.087.422-.247.766-.46 1.037-.354.451-.843.698-1.405.79-.519.087-1.09.044-1.677-.078-1.299-.276-2.656-.964-3.397-1.478-.145.078-.291.155-.436.233-.771.412-1.531.819-2.137 1.052-1.604 2.99-1.444 4.357-1.241 6.125.155 1.342.339 2.898-.116 5.447-.126.722-.131 1.149.005 1.473.136.32.436.601.897.993 3.891 3.32 4.1 5.781 4.313 8.277.111 1.284.218 2.583.892 3.998.237.504.402.94.46 1.405.058.475 0 .955-.218 1.527l-.01.029c-.204.533-.48 1.265-.654 2.384-.218 1.376-.795 2.709-1.473 3.891-.664 1.153-1.425 2.176-2.026 2.946-.499.771-.659 1.158-.824 1.575-.174.431-.363.887-.901 1.774l-.058.097c-.015.034-.034.087-.078.189-.267.708-.373 1.1-.378 1.323 0 .034.005.053.01.063.562.204.567.446.582.945 0 .058.005.121.01.223.15 2.035 1.066 2.714 2.496 3.77l.257.194c.834.62 1.546 1.275 1.895 1.851.189.305.286.601.267.882-.024.33-.189.601-.533.8-.3.174-.756.281-1.401.305-1.09.034-2.152.058-3.121-.048-1.008-.111-1.924-.368-2.67-.901-.519-.368-.674-.746-.809-1.071-.087-.218-.165-.397-.504-.47-.252-.053-.393-.039-.538-.024-.223.024-.456.048-.901-.044-1.023-.208-1.599-.523-1.842-1.11-.228-.548-.102-1.26.267-2.302.092-.262.145-.577.199-.897.082-.494.165-.998.378-1.434.019-.048.039-.102.063-.15.102-.208.257-.397.441-.543l.015.015c.184-.155.407-.286.683-.388l.034-.015.044-.005c.136-.024.485-1.212.519-1.328.116-.397.228-.737.339-1.071.141-.426.276-.848.388-1.255.034-.33.237-.96.46-1.662.242-.756.514-1.599.601-2.118 0-.998.373-2.457.916-3.775.494-1.207 1.129-2.316 1.749-2.893.01-.557-.213-.858-.465-1.197-.102-.141-.213-.281-.32-.456l-.029-.044c-.339-.538-.63-.998-.974-1.434l-.015-.019c-.533-.756-1.371-1.401-2.224-2.06-1.023-.79-2.069-1.599-2.743-2.68l-.063-.102c-.363-.586-.46-.737-1.066-.62-.562.107-.732.499-.989 1.09-.092.208-.189.441-.315.688-.383.761-.795 1.168-1.129 1.502-.208.208-.383.378-.456.567-.189.46-.247.775-.291.993-.15.775-.165.853-1.434.979-.858.15-1.948 1.943-2.937 3.576-.572.94-1.11 1.827-1.604 2.384-.446.504-.906.984-1.396 1.43-.494.451-1.027.872-1.614 1.25-.732.475-1.115.64-1.401.761-.33.141-.489.208-1.095.872-1.478 1.614-2.811 1.856-3.891 2.055-.712.131-1.299.237-1.667.809l-.068.102-.111.053c-.087.044-.17.063-.233.078l-.015.005-.029.005c-.15.029-.271.044-.388.063-.344.048-.654.097-.93.267-.615.388-1.032.703-1.318.969-.267.247-.412.451-.514.625l-.073.126c-.262.456-.383.669-.557.867-.15.174-.31.3-.611.538-.039.029-.073.058-.276.218l-.029.019-.029.015c-.552.31-1.192.528-1.837.741-.451.15-.901.3-1.304.485-.606.271-.998.533-1.376.785-.475.315-.935.62-1.74.935-.141.053-.267.111-.397.165-.523.228-1.095.48-2.084.582-.814.082-1.585-.141-2.166-.533-.296-.199-.543-.446-.727-.717-.189-.286-.315-.601-.349-.93-.044-.417.053-.848.33-1.255.397-.591 1.153-.945 1.88-1.284.383-.179.756-.354 1.032-.548.887-.625 1.57-1.095 2.433-1.565.838-.456 1.827-.911 3.324-1.502.523-.722 1.1-.993 1.696-1.275.388-.179.78-.368 1.153-.703.024-.024.635-.46 1.115-.761.179-.111.349-.208.489-.276.068-.107.136-.208.208-.31.024-.044.048-.087.078-.131l.015.01c1.488-2.026 3.896-3.276 5.743-4.235 1.095-.567 1.977-1.027 2.234-1.41.543-.814.998-1.856 1.386-2.922.388-1.076.708-2.19.974-3.135.354-1.308.548-2.064.688-2.593.208-.804.296-1.144.422-1.488.092-.257.194-.504.373-.94.373-.892 1.076-2.578 2.661-6.722.426-1.575.737-1.972 1.139-2.481.32-.407.703-.897 1.304-2.365.107-.267.223-.441.32-.596.15-.233.252-.393.092-.955l.004-.012zm-1.72 8.573c.082-.218.33-.33.548-.247.218.082.33.33.247.548l-1.909 4.967c-.082.218-.33.33-.548.247-.218-.082-.33-.33-.247-.548l1.909-4.967zm-21.764-8.389c.659.087 1.221.436 1.599.93.373.489.562 1.124.475 1.788-.087.659-.436 1.221-.93 1.599-.48.368-1.1.552-1.745.48l-.039-.005c-.659-.087-1.221-.436-1.599-.93-.368-.48-.552-1.1-.48-1.745l.005-.039c.087-.659.436-1.221.93-1.599.489-.373 1.124-.562 1.788-.475l-.004-.004zm1.207 2.084c-.034.029-.073.058-.111.082-.126.078-.271.121-.436.131-.349.024-.785-.107-1.294-.378-.16-.087-.32-.136-.47-.155-.16-.019-.31 0-.436.058-.116.053-.218.145-.286.271-.015.029-.029.063-.044.097-.053.422.068.829.305 1.139.242.32.606.543 1.032.601.426.058.838-.063 1.153-.305.32-.242.543-.606.601-1.032.024-.174.019-.349-.015-.514v.005zm-2.607-.824c.111-.015.228-.015.349 0 .213.024.436.092.654.213.422.228.771.334 1.023.32.082-.005.15-.024.204-.058.053-.029.092-.078.126-.141.01-.019.019-.039.024-.058-.019-.029-.044-.058-.063-.087-.242-.32-.606-.543-1.032-.601-.426-.058-.838.063-1.153.305-.044.034-.087.073-.131.111v-.004zm-3.896-1.279c.092.01.16.097.15.189-.01.092-.097.16-.189.15-.257-.029-8.093-1.953-8.112-1.958-.092-.024-.145-.116-.126-.204.024-.092.116-.145.204-.126.023.006 7.835 1.925 8.073 1.949zm.683 1.163c.092.01.16.097.15.189-.01.092-.097.16-.189.15-.257-.029-5.19-1.241-5.205-1.245-.092-.024-.145-.116-.126-.208.024-.092.116-.145.208-.126.015.005 4.924 1.212 5.161 1.236v.004zm-2.021.509c.092.01.16.097.15.189-.01.092-.097.16-.189.15-.252-.029-5.19-1.241-5.205-1.245-.092-.024-.145-.116-.126-.208.024-.092.116-.145.208-.126.015.005 4.924 1.212 5.161 1.236v.004zm54.935-14.393c.068-.17.116-.32.131-.456.019-.141.005-.257-.044-.349-.044-.082-.131-.15-.262-.208-.107-.044-.242-.078-.402-.097-.785-.102-1.386.436-2.021 1.003-.082.073-.165.15-.31.271-.107.121-.237.262-.422.402-1.042.93-2.859 1.793-4.846 2.433-2.108.678-4.424 1.115-6.203 1.115-.208 0-.523-.039-.814-.092-.315-.058-.615-.141-.761-.208-.116-.058-1.58-.703-2.011-.892-.649.145-1.357.649-1.934 1.313-.315.363-.586.771-.78 1.187 1.202.64 2.428 1.052 3.3 1.342.591.199 1.032.344 1.255.494.063.044.136.097.218.155.315.233.814.601 1.226.615 1.144.044 3.586-1.095 5.311-1.895.47-.218.887-.412 1.245-.567.111-.058.223-.116.334-.179 1.134-.606 2.287-1.221 3-1.313h.005c.955-.107 1.667-.281 2.219-.523-.3-.141-.514-.378-.64-.654-.092-.204-.136-.426-.136-.654.005-.223.053-.446.141-.645.228-.514.722-.911 1.434-.882.543.019.94.281 1.178.64.063-.15.126-.305.189-.465l.024-.082.01.005c.107-.262.218-.528.344-.814h.022zm-2.52-1.289c.577-.451 1.202-.771 2.055-.664.242.029.446.082.62.155.276.116.485.281.62.485.058-.073.116-.141.174-.208.237-.276.451-.523.552-.926.034-.422-.053-.795-.228-1.09-.184-.31-.46-.548-.795-.693-.344-.15-.741-.204-1.153-.136-.499.078-1.023.334-1.497.8-.15.145-.184.664-.223 1.182-.024.363-.048.732-.126 1.047l-.005.044.006.004zm-22.224 7.55c-.218.087-.465-.019-.552-.237-.087-.218.019-.465.237-.552 1.546-.615 1.885-.32 2.573.281.179.155.383.334.669.523.136-.911.63-1.842 1.284-2.598.693-.8 1.585-1.41 2.428-1.594-.344-.315-.906-.756-1.58-1.149-.591-.344-1.265-.645-1.943-.775-.233-.044-.383-.267-.339-.499.044-.233.267-.383.499-.339.79.155 1.551.489 2.215.877 1.042.606 1.851 1.338 2.103 1.633.126.145.179.3.179.441 0 .048-.005.092-.015.136.499.218 1.124.494 1.425.645.068.034.286.087.533.131.242.044.499.078.664.078 1.134 0 2.505-.189 3.891-.509-.015-.044-.024-.092-.024-.141 0-1.212-.184-1.905-.436-2.859-.073-.276-.15-.572-.242-.94-.053-.228.087-.46.315-.514.228-.053.46.087.514.315.078.32.16.635.237.926.029.116.063.233.092.344l.082.237c.228.659.417 1.207.601 1.58.33-.489.727-.916 1.173-1.275.475-.378.998-.683 1.546-.901-.218-.271-.417-.567-.606-.848-.199-.291-.383-.567-.548-.756-.412-.47-.843-.863-1.25-1.231-.446-.407-.863-.78-1.207-1.221-.16-.204-.339-.407-.538-.596-.199-.184-.417-.359-.664-.494-.141-.078-.291-.145-.446-.199-.63-.218-1.376-.257-2.06-.063-.669.189-1.284.606-1.667 1.294-.063.116-.121.237-.174.373.141.858.116 1.517-.039 2.011-.174.567-.504.921-.935 1.115-.407.179-.887.199-1.4.102-.775-.145-1.653-.567-2.438-1.105-.184.029-.388.039-.62.029-.485-.019-.892-.121-1.27-.441-.393.48-1.061.809-1.774 1.163-1.027.509-2.171 1.071-2.375 2.123-.048.237-.034.601.015.96.053.397.141.771.237.969.073.155.145.252.208.339.17.228.3.412.378.96.044.286.039.615.034.945-.005.276-.01.548.019.761.034.257.053.276.087.305.116.111.276.262.489.761.523 1.216.548 2.147.567 2.966.015.567.029 1.081.237 1.57.053.126.102.247.145.359.015.024.024.048.034.078.039.107.073.208.107.31.029.078.053.155.073.223l.048.16c.228.722.359 1.129 1.178 1.817.179.15.204.417.053.601-.15.179-.417.204-.601.053-.422-.349-.693-.64-.887-.921-.078.121-.16.257-.233.431-.645 1.575-1.066 2.113-1.42 2.564-.218.281-.407.519-.615 1.032.945.494 1.575.93 2.123 1.304 1.216.834 1.987 1.357 4.967 1.58.669.048 1.245.16 1.803.267 1.11.208 2.103.397 3.446-.039.955-.31 1.909-.897 2.331-1.173-.039-.359-.005-.785.092-1.338.431-2.433.262-3.92.111-5.205-.204-1.725-.363-3.101.882-5.723-1.468.645-3.029 1.226-3.983 1.192-.678-.024-1.308-.489-1.706-.785-.073-.053-.136-.102-.184-.131-.136-.092-.528-.223-1.052-.397-.615-.208-1.405-.47-2.249-.834-.223.262-.47.465-.712.591-.363.189-.727.213-1.027.034-.703-.344-1.105-.693-1.42-.969-.426-.373-.635-.557-1.696-.131v-.007z"/>
  </defs>
  <clipPath id="SVGID_2_">
    <use xlink:href="#SVGID_1_" overflow="visible"/>
  </clipPath>
  <g clip-path="url(#SVGID_2_)">
    <defs>
      <path id="SVGID_3_" d="M-703.983-120.733H691.69v992.478H-703.983z"/>
    </defs>
    <clipPath id="SVGID_4_">
      <use xlink:href="#SVGID_3_" overflow="visible"/>
    </clipPath>
    <path clip-path="url(#SVGID_4_)" fill="#ffe644" d="M128.434-4.426h78.086v90.272h-78.086z"/>
  </g>
  <path class="st2" d="M13.479 41.127h-1.454c0-2.539-2.065-4.604-4.604-4.604V35.07c2.539 0 4.604-2.065 4.604-4.604h1.454c0 2.539 2.065 4.604 4.604 4.604v1.453c-2.538-.001-4.604 2.065-4.604 4.604zm-3.182-5.331c1.038.562 1.894 1.418 2.456 2.456.562-1.038 1.418-1.895 2.456-2.456-1.038-.562-1.894-1.418-2.456-2.456-.563 1.038-1.419 1.894-2.456 2.456zM60.002 33.373h-1.454c0-2.539-2.065-4.604-4.604-4.604v-1.453c2.539 0 4.604-2.065 4.604-4.604h1.454c0 2.538 2.065 4.604 4.604 4.604v1.453c-2.539 0-4.604 2.065-4.604 4.604zm-3.182-5.331c1.037.562 1.893 1.418 2.455 2.456.562-1.038 1.418-1.895 2.456-2.456-1.038-.562-1.894-1.418-2.456-2.455-.562 1.037-1.418 1.893-2.455 2.455z"/>
  <g>
    <path class="st2" d="M109.432 51.788h-1.453c0-2.539-2.065-4.604-4.604-4.604V45.73c2.539 0 4.604-2.065 4.604-4.604h1.453c0 2.538 2.065 4.604 4.604 4.604v1.453c-2.539.001-4.604 2.066-4.604 4.605zm-3.182-5.331c1.037.562 1.894 1.418 2.455 2.456.562-1.038 1.418-1.894 2.455-2.456-1.037-.562-1.894-1.418-2.455-2.455-.561 1.037-1.418 1.894-2.455 2.455z"/>
  </g>
  <g>
    <path class="st2" d="M86.171 66.326h-1.453c0-2.539-2.065-4.604-4.604-4.604v-1.453c2.539 0 4.604-2.065 4.604-4.604h1.453c0 2.538 2.065 4.604 4.604 4.604v1.453c-2.539 0-4.604 2.065-4.604 4.604zm-3.182-5.331c1.037.562 1.894 1.418 2.455 2.455.562-1.037 1.418-1.894 2.455-2.455-1.037-.562-1.894-1.418-2.455-2.455-.561 1.037-1.418 1.894-2.455 2.455z"/>
  </g>
</svg>
