<?xml version="1.0" encoding="utf-8"?>
<!-- Generator: Adobe Illustrator 23.0.3, SVG Export Plug-In . SVG Version: 6.00 Build 0)  -->
<svg version="1.1" id="Layer_1" xmlns="http://www.w3.org/2000/svg" xmlns:xlink="http://www.w3.org/1999/xlink" x="0px" y="0px"
	 viewBox="0 0 105 22" style="enable-background:new 0 0 105 22;" xml:space="preserve">
<style type="text/css">
	.st0{fill:none;stroke:#FE353A;stroke-width:1.5;}
	.st1{fill:none;stroke:#63C6BF;stroke-width:1.5;}
	.st2{fill:none;stroke:#FFE644;stroke-width:1.5;}
	.st3{fill:none;stroke:#3232EF;stroke-width:1.5;}
</style>
<title>Group 9</title>
<desc>Created with Sketch.</desc>
<g id="Page-1">
	<g id="LiveAbout-Desktop" transform="translate(-426.000000, -934.000000)">
		<g id="Group-9" transform="translate(426.000000, 934.000000)">
			<path id="Stroke-3-Copy-12" class="st0" d="M5.5,13C5.5,10,3,7.5,0,7.5C3,7.5,5.5,5,5.5,2C5.5,5,8,7.5,11,7.5
				C8,7.5,5.5,10,5.5,13z"/>
			<path id="Stroke-3-Copy-13" class="st1" d="M22.5,22c0-3-2.5-5.5-5.5-5.5c3,0,5.5-2.5,5.5-5.5c0,3,2.5,5.5,5.5,5.5
				C25,16.5,22.5,19,22.5,22z"/>
			<path id="Stroke-3-Copy-14" class="st2" d="M64.5,11c0-3-2.5-5.5-5.5-5.5c3,0,5.5-2.5,5.5-5.5c0,3,2.5,5.5,5.5,5.5
				C67,5.5,64.5,8,64.5,11z"/>
			<path id="Stroke-3-Copy-15" class="st3" d="M99.5,16c0-3-2.5-5.5-5.5-5.5c3,0,5.5-2.5,5.5-5.5c0,3,2.5,5.5,5.5,5.5
				C102,10.5,99.5,13,99.5,16z"/>
		</g>
	</g>
</g>
</svg>
