<?xml version="1.0" standalone="no"?>
<!DOCTYPE svg PUBLIC "-//W3C//DTD SVG 20010904//EN"
 "http://www.w3.org/TR/2001/REC-SVG-20010904/DTD/svg10.dtd">
<svg version="1.0" xmlns="http://www.w3.org/2000/svg"
 width="300.000000pt" height="300.000000pt" viewBox="0 0 300.000000 300.000000"
 preserveAspectRatio="xMidYMid meet">
<metadata>
Created by potrace 1.11, written by Peter Selinger 2001-2013
</metadata>
<g transform="translate(0.000000,300.000000) scale(0.100000,-0.100000)"
fill="#000000" stroke="none">
<path d="M0 1500 l0 -1500 1500 0 1500 0 0 1500 0 1500 -1500 0 -1500 0 0
-1500z m2481 1000 c10 -6 19 -17 19 -25 0 -11 -569 -1627 -642 -1822 -21 -57
-36 -68 -64 -48 -11 7 -91 112 -179 234 -88 121 -164 220 -170 221 -5 0 -136
-126 -291 -281 -243 -243 -284 -280 -300 -271 -32 18 -354 347 -354 363 0 7
127 141 283 297 270 271 281 284 261 298 -11 8 -117 85 -235 172 -223 164
-247 190 -197 212 16 7 1691 605 1846 659 2 1 12 -4 23 -9z"/>
</g>
</svg>
