<?xml version="1.0" encoding="iso-8859-1"?>
<!-- Generator: Adobe Illustrator 19.0.0, SVG Export Plug-In . SVG Version: 6.00 Build 0)  -->
<svg version="1.1" id="Capa_1" xmlns="http://www.w3.org/2000/svg" xmlns:xlink="http://www.w3.org/1999/xlink" x="0px" y="0px"
	 viewBox="0 0 512 512" style="enable-background:new 0 0 512 512;" xml:space="preserve">
<g transform="matrix(1.25 0 0 -1.25 0 45)">
	<g>
		<g>
			<path style="fill:#662113;" d="M409.6-26.123c0-51.2-91.694-130.844-204.8-130.844S0-77.323,0-26.123
				C0-9.056,34.133-43.189,204.8-43.189S409.6-9.056,409.6-26.123"/>
			<path style="fill:#EA596E;" d="M204.8-65.945c-68.267,0-125.156,11.378-125.156,11.378V-191.1
				c0-69.12,56.036-125.156,125.156-125.156S329.956-260.22,329.956-191.1v136.533C329.956-54.567,273.067-65.945,204.8-65.945"/>
			<path style="fill:#DD2E44;" d="M216.178-270.745c0-6.292-5.097-11.378-11.378-11.378s-11.378,5.086-11.378,11.378V-88.7
				c0,6.281,5.097,11.378,11.378,11.378s11.378-5.097,11.378-11.378V-270.745z"/>
		</g>
	</g>
</g>
<g>
</g>
<g>
</g>
<g>
</g>
<g>
</g>
<g>
</g>
<g>
</g>
<g>
</g>
<g>
</g>
<g>
</g>
<g>
</g>
<g>
</g>
<g>
</g>
<g>
</g>
<g>
</g>
<g>
</g>
</svg>
